<?xml version="1.0" standalone="no"?>
<!DOCTYPE svg PUBLIC "-//W3C//DTD SVG 1.1//EN" "http://www.w3.org/Graphics/SVG/1.1/DTD/svg11.dtd" >
<svg>
<metadata>
Created by FontForge 20110222 at Tue Sep 23 09:43:18 2014
 By deploy user
Copyright (c) 2008 by Silas Dilworth. All rights reserved.
</metadata>
<defs>
<font id="HeroicCondensed-Regular" horiz-adv-x="328" >
  <font-face 
    font-family="Heroic Condensed Regular"
    font-weight="400"
    font-stretch="normal"
    units-per-em="1000"
    panose-1="2 0 5 6 4 0 0 2 0 4"
    ascent="750"
    descent="-250"
    x-height="500"
    cap-height="700"
    bbox="-36 -210 597 885"
    underline-thickness="50"
    underline-position="-50"
    unicode-range="U+0020-2265"
  />
<missing-glyph horiz-adv-x="450" 
d="M50 0v700h350v-700h-350zM70 680v-660l144 330zM380 20v660l-145 -330zM225 326l-134 -306h267zM91 680l134 -306l133 306h-267z" />
    <glyph glyph-name=".notdef" horiz-adv-x="450" 
d="M50 0v700h350v-700h-350zM70 680v-660l144 330zM380 20v660l-145 -330zM225 326l-134 -306h267zM91 680l134 -306l133 306h-267z" />
    <glyph glyph-name=".null" horiz-adv-x="0" 
 />
    <glyph glyph-name="nonmarkingreturn" horiz-adv-x="333" 
 />
    <glyph glyph-name="space" unicode=" " horiz-adv-x="175" 
 />
    <glyph glyph-name="exclam" unicode="!" horiz-adv-x="179" 
d="M53 77h72v-77h-72v77zM50 700h77l-16 -470h-44z" />
    <glyph glyph-name="quotedbl" unicode="&#x22;" horiz-adv-x="265" 
d="M39 710h72l-16 -203h-39zM153 710h72l-17 -203h-39z" />
    <glyph glyph-name="numbersign" unicode="#" horiz-adv-x="350" 
d="M310 553v-36h-56l-10 -184h56v-36h-58l-8 -147h-39l8 147h-70l-8 -147h-39l8 147h-54v36h56l10 184h-56v36h58l8 147h39l-8 -147h70l8 147h39l-8 -147h54zM145 517l-10 -184h70l10 184h-70z" />
    <glyph glyph-name="dollar" unicode="$" horiz-adv-x="335" 
d="M59 485v19q0 106 88 115v81h41v-81q48 -5 67 -34t19 -81v-51h-58v52q0 63 -49 63t-49 -63v-20q0 -34 16 -56t39 -35t46 -26.5t39 -41t16 -68.5v-42q0 -52 -19 -81t-67 -34v-101h-41v101q-49 5 -68.5 34t-19.5 81v62h59v-53q0 -41 9.5 -57t39.5 -16q49 0 49 63v41
q0 28 -11.5 48.5t-29 30.5t-38 22.5t-38 25.5t-29 39.5t-11.5 62.5z" />
    <glyph glyph-name="percent" unicode="%" horiz-adv-x="451" 
d="M394 700l-293 -700h-44l293 700h44zM130 435q-45 0 -62.5 24.5t-17.5 79.5v67q0 55 17.5 79.5t62.5 24.5t62.5 -24.5t17.5 -79.5v-67q0 -55 -17.5 -79.5t-62.5 -24.5zM321 -10q-45 0 -62.5 24.5t-17.5 79.5v67q0 55 17.5 79.5t62.5 24.5t62.5 -24.5t17.5 -79.5v-67
q0 -55 -17.5 -79.5t-62.5 -24.5zM130 671q-22 0 -29.5 -13.5t-7.5 -50.5v-69q0 -37 7.5 -50.5t29.5 -13.5t29.5 13.5t7.5 50.5v69q0 37 -7.5 50.5t-29.5 13.5zM321 226q-22 0 -29.5 -13.5t-7.5 -50.5v-69q0 -37 7.5 -50.5t29.5 -13.5t29.5 13.5t7.5 50.5v69q0 37 -7.5 50.5
t-29.5 13.5z" />
    <glyph glyph-name="ampersand" unicode="&#x26;" horiz-adv-x="392" 
d="M352 382v-57h-57v-214q0 -25 15 -39t41 -14v-58q-64 0 -86 40q-22 -50 -91 -50q-63 0 -89 30t-26 89v143q0 81 56 102q-56 21 -56 101v132q0 59 26.5 91t91.5 32q117 0 117 -123v-77h-62v77q0 66 -55 66t-55 -66v-143q0 -62 58 -62h172zM177 46q33 0 44 21t11 60v198h-52
q-37 0 -47.5 -19.5t-10.5 -61.5v-119q0 -38 11 -58.5t44 -20.5z" />
    <glyph glyph-name="quotesingle" unicode="'" horiz-adv-x="142" 
d="M34 710h72l-16 -203h-39z" />
    <glyph glyph-name="parenleft" unicode="(" horiz-adv-x="240" 
d="M190 -30h-46q-95 196 -95 379t95 381h46q-87 -207 -87 -381t87 -379z" />
    <glyph glyph-name="parenright" unicode=")" horiz-adv-x="240" 
d="M95 -30h-46q87 205 87 379t-87 381h46q95 -198 95 -381t-95 -379z" />
    <glyph glyph-name="asterisk" unicode="*" horiz-adv-x="344" 
d="M162 583l-23 127h64l-22 -127l113 60l19 -60l-127 -18l93 -89l-52 -38q-9 20 -56 116q-9 -20 -56 -116l-52 38l93 89l-127 18l19 60z" />
    <glyph glyph-name="plus" unicode="+" horiz-adv-x="382" 
d="M49 257v46h118v122h47v-122h118v-46h-118v-122h-47v122h-118z" />
    <glyph glyph-name="comma" unicode="," horiz-adv-x="145" 
d="M39 77h70l-32 -165h-38v165z" />
    <glyph glyph-name="hyphen" unicode="-" horiz-adv-x="250" 
d="M39 257v46h170v-46h-170z" />
    <glyph glyph-name="period" unicode="." horiz-adv-x="147" 
d="M39 77h67v-77h-67v77z" />
    <glyph glyph-name="slash" unicode="/" horiz-adv-x="268" 
d="M29 -30l160 760h48l-160 -760h-48z" />
    <glyph glyph-name="zero" unicode="0" horiz-adv-x="341" 
d="M170 46q55 0 55 66v475q0 66 -55 66t-55 -66v-475q0 -66 55 -66zM170 710q65 0 91.5 -32t26.5 -91v-475q0 -59 -26.5 -90.5t-91.5 -31.5t-91.5 31.5t-26.5 90.5v475q0 59 26.5 91t91.5 32z" />
    <glyph glyph-name="one" unicode="1" horiz-adv-x="262" 
d="M163 700v-640h61v-60h-185v60h61v530h-63v43q75 0 75 67h51z" />
    <glyph glyph-name="two" unicode="2" horiz-adv-x="320" 
d="M110 103v-43h172v-60h-235v100q0 66 17.5 116.5t42.5 82.5t49.5 61t42 67.5t17.5 86.5v76q0 63 -53 63t-53 -63v-80h-63v80q0 57 26 88.5t90 31.5t90 -31.5t26 -88.5v-75q0 -57 -17.5 -101t-42.5 -74t-49.5 -60t-42 -75t-17.5 -102z" />
    <glyph glyph-name="three" unicode="3" horiz-adv-x="337" 
d="M128 324v58h34q51 0 51 59v150q0 25 -13 43.5t-39 18.5q-51 0 -51 -62v-81h-61v81q0 57 25 88t87 31q63 0 88.5 -31t25.5 -88v-144q0 -72 -53 -93q57 -20 57 -93v-149q0 -59 -26 -90.5t-91 -31.5t-90 31.5t-25 90.5v88h62v-88q0 -27 13 -46.5t40 -19.5q54 0 54 66v151
q0 26 -13.5 43.5t-40.5 17.5h-34z" />
    <glyph glyph-name="four" unicode="4" horiz-adv-x="325" 
d="M189 0v154h-162v65l141 481h84v-488h45v-58h-45v-154h-63zM79 212h110v133v272z" />
    <glyph glyph-name="five" unicode="5" horiz-adv-x="341" 
d="M173 369q-40 0 -63 -35h-51l18 366h201v-61h-145l-11 -241q30 25 66 25q54 0 77 -27.5t23 -87.5v-196q0 -59 -26.5 -90.5t-91.5 -31.5t-91.5 31.5t-26.5 90.5v88h63v-88q0 -66 55 -66t55 66v196q0 61 -52 61z" />
    <glyph glyph-name="six" unicode="6" horiz-adv-x="346" 
d="M175 653q-55 0 -55 -66v-209q33 31 72 31q54 0 77.5 -29.5t23.5 -87.5v-180q0 -59 -27 -90.5t-91 -31.5t-91 31.5t-27 90.5v475q0 123 118 123t118 -123v-77h-63v77q0 66 -55 66zM176 354q-37 0 -56 -32v-210q0 -66 55 -66t55 66v180q0 62 -54 62z" />
    <glyph glyph-name="seven" unicode="7" horiz-adv-x="274" 
d="M161 0h-69q0 190 21.5 337.5t77.5 301.5h-169v61h229v-50q-57 -179 -73.5 -299t-16.5 -351z" />
    <glyph glyph-name="eight" unicode="8" horiz-adv-x="341" 
d="M170 710q63 0 88.5 -31t25.5 -88v-144q0 -72 -54 -93q58 -21 58 -103v-139q0 -59 -26.5 -90.5t-91.5 -31.5t-91.5 31.5t-26.5 90.5v139q0 82 58 103q-53 21 -53 93v144q0 57 25.5 88t87.5 31zM170 46q32 0 43.5 19t11.5 54v137q0 34 -11 52.5t-44 18.5q-32 0 -43.5 -18.5
t-11.5 -52.5v-137q0 -35 11.5 -54t43.5 -19zM170 653q-51 0 -51 -68v-139q0 -32 10.5 -49t40.5 -17t41 17t11 49v139q0 68 -52 68z" />
    <glyph glyph-name="nine" unicode="9" horiz-adv-x="341" 
d="M170 47q55 0 55 66v219q-33 -31 -72 -31q-54 0 -77.5 29.5t-23.5 87.5v170q0 59 27 90.5t91 31.5t91 -31.5t27 -90.5v-475q0 -123 -118 -123t-118 123v87h63v-87q0 -66 55 -66zM169 356q37 0 56 32v200q0 66 -55 66t-55 -66v-170q0 -62 54 -62z" />
    <glyph glyph-name="colon" unicode=":" horiz-adv-x="167" 
d="M49 392h67v-77h-67v77zM49 77h67v-77h-67v77z" />
    <glyph glyph-name="semicolon" unicode=";" horiz-adv-x="165" 
d="M49 392h67v-77h-67v77zM49 77h70l-32 -165h-38v165z" />
    <glyph glyph-name="less" unicode="&#x3c;" horiz-adv-x="291" 
d="M199 -30l-160 380l160 380h51l-160 -380l160 -380h-51z" />
    <glyph glyph-name="equal" unicode="=" horiz-adv-x="360" 
d="M309 181h-260v46h260v-46zM309 333h-260v46h260v-46z" />
    <glyph glyph-name="greater" unicode="&#x3e;" horiz-adv-x="291" 
d="M250 350l-160 -380h-51l160 380l-160 380h51z" />
    <glyph glyph-name="question" unicode="?" horiz-adv-x="329" 
d="M186 230h-45v20q0 56 7.5 92.5t18.5 53t22 30t18.5 37t7.5 60.5v64q0 66 -51 66q-31 0 -41.5 -17t-10.5 -49v-72h-63v72q0 60 24.5 91.5t90.5 31.5q65 0 89.5 -31.5t24.5 -91.5v-62q0 -49 -9 -79.5t-22 -46t-26 -32t-23 -50.5t-12 -87zM127 77h72v-77h-72v77z" />
    <glyph glyph-name="at" unicode="@" horiz-adv-x="523" 
d="M261 -110q-212 0 -212 234v251q0 235 212 235q211 0 211 -235v-251q0 -234 -211 -234zM261 -69q168 0 168 193v251q0 194 -168 194t-168 -194v-251q0 -89 37 -141t131 -52zM168 129v62q0 48 28.5 75t105.5 48v57q0 50 -41 50q-42 0 -42 -50v-22h-47v23q0 90 89 90
q49 0 68.5 -23.5t19.5 -67.5v-324h-34q-1 5 -5 13l-6 12q-16 -34 -58 -34t-60 23t-18 68zM302 130v148q-53 -16 -70 -37t-17 -61v-51q0 -51 45 -51q42 0 42 52z" />
    <glyph glyph-name="A" unicode="A" horiz-adv-x="324" 
d="M201 700l95 -700h-64l-19 160h-103l-19 -160h-64l96 700h78zM162 604l-46 -386h90z" />
    <glyph glyph-name="B" unicode="B" horiz-adv-x="353" 
d="M62 0v700h114q68 0 93.5 -26t25.5 -83v-147q0 -71 -54 -90q59 -19 59 -92v-146q0 -59 -25 -87.5t-93 -28.5h-120zM125 60h53q33 0 46 14t13 44v146q0 60 -59 60h-53v-264zM175 639h-50v-257h49q59 0 59 60v140q0 30 -13 43.5t-45 13.5z" />
    <glyph glyph-name="C" unicode="C" horiz-adv-x="329" 
d="M226 112v88h61v-88q0 -122 -117 -122q-65 0 -91.5 31.5t-26.5 90.5v475q0 59 26.5 91t91.5 32q117 0 117 -123v-77h-61v77q0 29 -14 47.5t-42 18.5q-55 0 -55 -66v-475q0 -66 55 -66q56 0 56 66z" />
    <glyph glyph-name="D" unicode="D" horiz-adv-x="358" 
d="M125 60h52q34 0 47 15t13 46v458q0 30 -13 45t-47 15h-52v-579zM62 0v700h116q68 0 95 -31t27 -90v-458q0 -59 -26 -90t-94 -31h-118z" />
    <glyph glyph-name="E" unicode="E" horiz-adv-x="301" 
d="M125 324v-264h136v-60h-199v700h199v-61h-136v-257h117v-58h-117z" />
    <glyph glyph-name="F" unicode="F" horiz-adv-x="288" 
d="M125 0h-63v700h193v-61h-130v-257h112v-58h-112v-324z" />
    <glyph glyph-name="G" unicode="G" horiz-adv-x="346" 
d="M175 324v58h118v-270q0 -59 -26.5 -90.5t-91.5 -31.5t-91.5 31.5t-26.5 90.5v476q0 59 26.5 90.5t91.5 31.5q64 0 90.5 -32t26.5 -90v-78h-62v78q0 65 -55 65t-55 -65v-476q0 -66 55 -66t55 66v212h-55z" />
    <glyph glyph-name="H" unicode="H" horiz-adv-x="364" 
d="M125 324v-324h-63v700h63v-318h113v318h63v-700h-63v324h-113z" />
    <glyph glyph-name="I" unicode="I" horiz-adv-x="188" 
d="M62 0v700h63v-700h-63z" />
    <glyph glyph-name="J" unicode="J" horiz-adv-x="322" 
d="M95 200v-89q0 -65 51 -65q29 0 39.5 16.5t10.5 48.5v589h63v-589q0 -60 -24.5 -90.5t-88.5 -30.5q-114 0 -114 121v89h63z" />
    <glyph glyph-name="K" unicode="K" horiz-adv-x="335" 
d="M125 700v-320l116 320h70l-135 -347l141 -353h-69l-123 326v-326h-63v700h63z" />
    <glyph glyph-name="L" unicode="L" horiz-adv-x="258" 
d="M62 0v700h63v-640h110v-60h-173z" />
    <glyph glyph-name="M" unicode="M" horiz-adv-x="480" 
d="M62 700h80l97 -595l98 595h80v-700h-60v239q0 31 1.5 95.5t3.5 143.5t3 110l-95 -588h-61l-95 588q1 -32 3 -110.5t3.5 -142.5t1.5 -96v-239h-60v700z" />
    <glyph glyph-name="N" unicode="N" horiz-adv-x="386" 
d="M117 546q6 -216 6 -320v-226h-61v700h62l147 -547q-6 220 -6 320v227h61v-700h-62z" />
    <glyph glyph-name="O" unicode="O" horiz-adv-x="341" 
d="M170 46q55 0 55 66v475q0 66 -55 66t-55 -66v-475q0 -66 55 -66zM170 710q65 0 91.5 -32t26.5 -91v-475q0 -59 -26.5 -90.5t-91.5 -31.5t-91.5 31.5t-26.5 90.5v475q0 59 26.5 91t91.5 32z" />
    <glyph glyph-name="P" unicode="P" horiz-adv-x="334" 
d="M62 0v700h114q68 0 94 -31t26 -90v-158q0 -119 -122 -119h-49v-302h-63zM125 360h48q34 0 47 15t13 46v158q0 60 -60 60h-48v-279z" />
    <glyph glyph-name="Q" unicode="Q" horiz-adv-x="341" 
d="M257 -91h-12q-99 0 -102 83q-91 10 -91 120v475q0 59 26.5 91t91.5 32t91.5 -32t26.5 -91v-475q0 -110 -91 -120q1 -23 12 -33t36 -10h22zM170 46q55 0 55 66v475q0 66 -55 66t-55 -66v-475q0 -66 55 -66z" />
    <glyph glyph-name="R" unicode="R" horiz-adv-x="348" 
d="M62 0v700h115q68 0 93.5 -31t25.5 -90v-158q0 -99 -79 -115l113 -306h-70l-103 302h-32v-302h-63zM125 360h48q34 0 47 15t13 46v158q0 60 -60 60h-48v-279z" />
    <glyph glyph-name="S" unicode="S" horiz-adv-x="329" 
d="M218 113v85q0 48 -12.5 81t-31.5 49t-41.5 33.5t-41.5 34t-31.5 50t-12.5 81.5v60q0 60 25.5 91.5t91.5 31.5t91.5 -31.5t25.5 -91.5v-77h-63v77q0 66 -54 66q-31 0 -42.5 -17t-11.5 -49v-59q0 -40 12.5 -68t31.5 -41.5t41.5 -31.5t41.5 -36.5t31.5 -57.5t12.5 -94v-86
q0 -60 -25.5 -91.5t-91.5 -31.5t-91.5 31.5t-25.5 91.5v87h63v-87q0 -67 54 -67q31 0 42.5 17t11.5 50z" />
    <glyph glyph-name="T" unicode="T" horiz-adv-x="275" 
d="M169 639v-639h-63v639h-84v61h230v-61h-83z" />
    <glyph glyph-name="U" unicode="U" horiz-adv-x="350" 
d="M120 700v-587q0 -67 55 -67q54 0 54 67v587h63v-587q0 -123 -117 -123q-66 0 -92 32t-26 91v587h63z" />
    <glyph glyph-name="V" unicode="V" horiz-adv-x="324" 
d="M296 700l-98 -700h-73l-98 700h65l70 -580l69 580h65z" />
    <glyph glyph-name="W" unicode="W" horiz-adv-x="536" 
d="M341 0l-74 574l-73 -574h-73l-89 700h64l62 -579l76 579h66l76 -579l62 579h64l-89 -700h-72z" />
    <glyph glyph-name="X" unicode="X" horiz-adv-x="318" 
d="M97 700l62 -256l62 256h67l-97 -337l104 -363h-67l-69 281l-69 -281h-67l103 363l-96 337h67z" />
    <glyph glyph-name="Y" unicode="Y" horiz-adv-x="302" 
d="M182 0h-63v291l-97 409h66l62 -318l63 318h66l-97 -409v-291z" />
    <glyph glyph-name="Z" unicode="Z" horiz-adv-x="277" 
d="M244 0h-212v40l141 599h-141v61h209v-40l-141 -600h144v-60z" />
    <glyph glyph-name="bracketleft" unicode="[" horiz-adv-x="246" 
d="M69 -120v850h126v-46h-73v-758h73v-46h-126z" />
    <glyph glyph-name="backslash" unicode="\" horiz-adv-x="268" 
d="M77 730l160 -760h-48l-160 760h48z" />
    <glyph glyph-name="bracketright" unicode="]" horiz-adv-x="246" 
d="M175 730v-850h-126v46h74v758h-74v46h126z" />
    <glyph glyph-name="asciicircum" unicode="^" horiz-adv-x="236" 
d="M137 710l58 -200h-40l-38 143l-37 -143h-41l58 200h40z" />
    <glyph glyph-name="underscore" unicode="_" horiz-adv-x="370" 
d="M49 0v53h270v-53h-270z" />
    <glyph glyph-name="grave" unicode="`" horiz-adv-x="177" 
d="M39 677h60l37 -127h-42z" />
    <glyph glyph-name="a" unicode="a" horiz-adv-x="313" 
d="M42 104v64q0 59 35 93t128 62v73q0 62 -49 62q-28 0 -39 -16t-11 -47v-23h-59v24q0 55 24.5 84.5t84.5 29.5q61 0 85 -29.5t24 -84.5v-396h-35l-16 30q-20 -40 -71 -40q-53 0 -77 28t-24 86zM205 104v174q-61 -19 -82 -43.5t-21 -65.5v-65q0 -62 52 -62q51 0 51 62z" />
    <glyph glyph-name="b" unicode="b" horiz-adv-x="323" 
d="M88 0h-36v710h60v-236q22 36 68 36q51 0 73 -28t22 -88v-289q0 -59 -22.5 -87t-74.5 -28t-74 41zM112 392v-286q0 -64 53 -64q50 0 50 64v288q0 64 -50 64q-53 0 -53 -66z" />
    <glyph glyph-name="c" unicode="c" horiz-adv-x="312" 
d="M210 172h59v-66q0 -57 -24 -86.5t-86 -29.5t-87 29.5t-25 86.5v287q0 57 25.5 87t86.5 30t85.5 -30t24.5 -87v-55h-59v55q0 65 -51 65q-52 0 -52 -65v-287q0 -64 52 -64q51 0 51 64v66z" />
    <glyph glyph-name="d" unicode="d" 
d="M275 0h-36l-16 31q-22 -41 -74 -41t-74.5 28t-22.5 87v289q0 60 22 88t73 28q46 0 68 -36v236h60v-710zM215 106v286q0 66 -53 66q-50 0 -50 -64v-288q0 -64 50 -64q53 0 53 64z" />
    <glyph glyph-name="e" unicode="e" horiz-adv-x="317" 
d="M210 172h59v-66q0 -57 -24 -86.5t-86 -29.5t-87 29.5t-25 86.5v287q0 57 25 87t87 30q61 0 85.5 -30t24.5 -87v-145h-162v-142q0 -64 52 -64q51 0 51 64v66zM210 295v97q0 34 -11.5 50t-39.5 16q-52 0 -52 -65v-98h103z" />
    <glyph glyph-name="f" unicode="f" horiz-adv-x="231" 
d="M174 720q22 0 39 -6v-53q-14 7 -37 7q-27 0 -37.5 -13.5t-10.5 -46.5v-108h73v-53h-73v-447h-60v447h-46v53h46v108q0 58 23 85t83 27z" />
    <glyph glyph-name="g" unicode="g" horiz-adv-x="324" 
d="M155 113q-41 0 -41 -28t41 -28q67 0 96 -28.5t29 -81.5v-9q0 -108 -124 -108t-124 108v9q0 77 63 100q-26 12 -26 38t28 38q-53 22 -53 107v162q0 57 25 87.5t86 30.5q24 0 47 -7q19 58 70 58q17 0 29 -4v-47q-18 5 -32 5q-28 0 -41 -24q39 -27 39 -99v-162
q0 -57 -25 -87t-87 -30zM155 458q-29 0 -40 -16.5t-11 -53.5v-160q0 -33 11.5 -49.5t39.5 -16.5t40 16t12 54v160q0 66 -52 66zM156 14q-65 0 -65 -62v-9q0 -61 65 -61t65 61v9q0 62 -65 62z" />
    <glyph glyph-name="h" unicode="h" 
d="M112 0h-60v710h60v-237q22 37 67 37q51 0 73.5 -28t22.5 -87v-395h-60v395q0 63 -50 63q-53 0 -53 -64v-394z" />
    <glyph glyph-name="i" unicode="i" horiz-adv-x="163" 
d="M51 500h60v-500h-60v500zM50 659h61v-74h-61v74z" />
    <glyph glyph-name="j" unicode="j" horiz-adv-x="161" 
d="M49 -58v558h60v-558q0 -58 -23.5 -85t-83.5 -27q-22 0 -38 6v53q14 -7 36 -7q27 0 38 13.5t11 46.5zM48 659h61v-74h-61v74z" />
    <glyph glyph-name="k" unicode="k" horiz-adv-x="298" 
d="M112 710v-428l97 218h66l-113 -241l123 -259h-67l-106 234v-234h-60v710h60z" />
    <glyph glyph-name="l" unicode="l" horiz-adv-x="165" 
d="M52 710h60v-710h-60v710z" />
    <glyph glyph-name="m" unicode="m" horiz-adv-x="487" 
d="M214 0v395q0 63 -49 63q-53 0 -53 -63v-395h-60v500h36l16 -32q25 42 76 42q58 0 79 -42q26 42 83 42q50 0 72 -28t22 -84v-398h-60v395q0 63 -49 63q-53 0 -53 -62v-396h-60z" />
    <glyph glyph-name="n" unicode="n" 
d="M112 0h-60v500h36l16 -32q24 42 74 42q52 0 74.5 -28t22.5 -87v-395h-60v395q0 63 -50 63q-53 0 -53 -64v-394z" />
    <glyph glyph-name="o" unicode="o" horiz-adv-x="318" 
d="M159 510q61 0 86 -30t25 -87v-287q0 -57 -24.5 -86.5t-86.5 -29.5t-87 29.5t-25 86.5v287q0 57 25.5 87t86.5 30zM159 42q51 0 51 64v287q0 65 -51 65q-52 0 -52 -65v-287q0 -64 52 -64z" />
    <glyph glyph-name="p" unicode="p" 
d="M52 500h36l16 -32q22 42 74 42t74.5 -28.5t22.5 -86.5v-289q0 -60 -22 -88t-73 -28q-46 0 -68 36v-186h-60v660zM112 393v-261q0 -44 10.5 -67t42.5 -23q50 0 50 64v288q0 64 -50 64q-53 0 -53 -65z" />
    <glyph glyph-name="q" unicode="q" 
d="M239 500h36v-660h-60v186q-22 -36 -68 -36q-51 0 -73 28t-22 88v289q0 59 22.5 87t74.5 28t74 -42zM215 108v285q0 65 -53 65q-50 0 -50 -64v-288q0 -64 50 -64q53 0 53 66z" />
    <glyph glyph-name="r" unicode="r" horiz-adv-x="212" 
d="M189 513v-62q-77 7 -77 -79v-372h-60v500h42l15 -31q25 44 80 44z" />
    <glyph glyph-name="s" unicode="s" horiz-adv-x="301" 
d="M42 376v19q0 56 24.5 85.5t83.5 29.5q60 0 84 -29.5t24 -85.5v-57h-59v57q0 34 -11.5 48.5t-37.5 14.5t-37.5 -15t-11.5 -48v-19q0 -29 11.5 -50t29 -32t38 -24.5t38 -26.5t29 -38.5t11.5 -60.5v-40q0 -57 -24 -85.5t-84 -28.5t-84 28.5t-24 85.5v68h59v-68
q0 -34 11.5 -48t37.5 -14t37.5 14.5t11.5 47.5v38q0 28 -11.5 48.5t-29 31.5t-38 24.5t-38 27t-29 40t-11.5 62.5z" />
    <glyph glyph-name="t" unicode="t" horiz-adv-x="242" 
d="M22 447v53h49v131q10 3 29.5 8t30.5 8v-147h79v-53h-79v-346q0 -31 10.5 -45t35.5 -14q19 0 37 7v-51q-18 -8 -40 -8q-58 0 -80.5 27t-22.5 84v346h-49z" />
    <glyph glyph-name="u" unicode="u" 
d="M215 500h60v-500h-35l-16 32q-22 -42 -75 -42q-52 0 -74.5 28t-22.5 87v395h60v-395q0 -63 51 -63q52 0 52 63v395z" />
    <glyph glyph-name="v" unicode="v" horiz-adv-x="293" 
d="M270 500l-92 -500h-64l-92 500h62l62 -408l62 408h62z" />
    <glyph glyph-name="w" unicode="w" horiz-adv-x="469" 
d="M295 0l-60 400l-61 -400h-68l-80 500h62l54 -413q20 137 62 413h62q23 -156 62 -413l54 413h61l-79 -500h-69z" />
    <glyph glyph-name="x" unicode="x" horiz-adv-x="289" 
d="M266 500l-93 -248l98 -252h-63l-64 188l-64 -188h-63l97 252l-92 248h63l59 -185l59 185h63z" />
    <glyph glyph-name="y" unicode="y" horiz-adv-x="301" 
d="M56 -170q-24 0 -39 5v54q17 -7 39 -7q44 0 56 58l11 59l-98 501h62l65 -391l64 391h62l-108 -562q-12 -59 -36.5 -83.5t-77.5 -24.5z" />
    <glyph glyph-name="z" unicode="z" horiz-adv-x="262" 
d="M229 0h-197v37l128 410h-123v53h187v-38l-127 -409h132v-53z" />
    <glyph glyph-name="braceleft" unicode="{" horiz-adv-x="274" 
d="M130 238q0 44 -47 44h-34v46h34q47 0 47 43q0 55 -25.5 135.5t-25.5 128.5q0 51 29 73t93 22h23v-46h-23q-38 0 -53 -13.5t-15 -46.5q0 -42 21 -122.5t21 -127.5q0 -55 -37 -69q37 -17 37 -70q0 -47 -21 -127.5t-21 -122.5q0 -33 15 -46t53 -13h23v-46h-23q-64 0 -93 22
t-29 73q0 48 25.5 128t25.5 135z" />
    <glyph glyph-name="bar" unicode="|" horiz-adv-x="188" 
d="M69 -120v850h48v-850h-48z" />
    <glyph glyph-name="braceright" unicode="}" horiz-adv-x="274" 
d="M143 238q0 -55 25.5 -135t25.5 -128q0 -51 -29 -73t-93 -22h-23v46h23q38 0 53 13t15 46q0 42 -21 122.5t-21 127.5q0 53 37 70q-37 14 -37 69q0 47 21 127.5t21 122.5q0 33 -15 46.5t-53 13.5h-23v46h23q64 0 93 -22t29 -73q0 -48 -25.5 -128.5t-25.5 -135.5
q0 -43 47 -43h34v-46h-34q-47 0 -47 -44z" />
    <glyph glyph-name="asciitilde" unicode="~" horiz-adv-x="313" 
d="M194 621q-28 0 -52 23t-40 23q-26 0 -26 -36h-35q0 41 13.5 60t45.5 19q28 0 52 -23t41 -23q26 0 26 36h34q0 -41 -13.5 -60t-45.5 -19z" />
    <glyph glyph-name="nbspace" unicode="&#xa0;" horiz-adv-x="85" 
 />
    <glyph glyph-name="exclamdown" unicode="&#xa1;" horiz-adv-x="179" 
d="M125 423h-72v77h72v-77zM127 -200h-77l17 470h44z" />
    <glyph glyph-name="cent" unicode="&#xa2;" horiz-adv-x="341" 
d="M222 282h59v-66q0 -52 -20 -81.5t-70 -34.5v-100h-41v100q-50 5 -70.5 34t-20.5 82v287q0 52 20.5 81.5t70.5 34.5v81h41v-81q50 -5 70 -34.5t20 -81.5v-55h-59v55q0 65 -51 65q-52 0 -52 -65v-287q0 -64 52 -64q51 0 51 64v66z" />
    <glyph glyph-name="sterling" unicode="&#xa3;" horiz-adv-x="382" 
d="M40 335v37h58v215q0 59 26 91t92 32q63 0 89 -32t26 -91v-77h-61v77q0 32 -11.5 49t-42.5 17q-55 0 -55 -66v-215h77v-37h-77v-213q0 -62 58 -62h113v-60h-113q-68 0 -91 44q-23 -44 -89 -44v60q59 0 59 62v213h-58z" />
    <glyph glyph-name="currency" unicode="&#xa4;" horiz-adv-x="314" 
d="M167 538q-51 0 -51 -65v-227q0 -64 51 -64q52 0 52 64v227q0 65 -52 65zM100 700l30 -115q18 5 37 5q20 0 37 -5l32 115h59l-41 -140q25 -29 25 -87v-227q0 -59 -24 -86l47 -160h-59l-37 135q-17 -5 -39 -5q-21 0 -38 5l-36 -135h-59l46 160q-24 27 -24 86v227
q0 58 25 87l-40 140h59z" />
    <glyph glyph-name="yen" unicode="&#xa5;" horiz-adv-x="337" 
d="M56 268h80v21q-33 137 -97 411h66l62 -325l63 325h66l-97 -411v-21h82v-37h-82v-70h82v-37h-82v-124h-63v124h-80v37h80v70h-80v37z" />
    <glyph glyph-name="brokenbar" unicode="&#xa6;" horiz-adv-x="188" 
d="M69 -120v378h48v-378h-48zM69 352v378h48v-378h-48z" />
    <glyph glyph-name="section" unicode="&#xa7;" horiz-adv-x="329" 
d="M279 259q0 -54 -11 -90t-45 -52q55 -41 55 -134v-30q0 -59 -25.5 -91t-88.5 -32t-89 32t-26 91v67h63v-67q0 -34 11.5 -50t40.5 -16q30 0 40.5 15.5t10.5 50.5v32q0 45 -17 71t-41.5 39.5t-49 30t-41.5 56.5t-17 106q0 107 55 134q-55 39 -55 135v30q0 59 26 91t89 32
q64 0 89 -32t25 -91v-67h-63v67q0 33 -10.5 49.5t-40.5 16.5t-41 -16.5t-11 -49.5v-32q0 -34 9 -57t24 -35t33 -22t35.5 -22t32.5 -29.5t24 -50.5t9 -80zM215 238q0 70 -14 100t-47 51q-42 -14 -42 -98q0 -63 15 -93.5t46 -49.5q42 12 42 90z" />
    <glyph glyph-name="dieresis" unicode="&#xa8;" horiz-adv-x="249" 
d="M39 659h61v-74h-61v74zM147 659h61v-74h-61v74z" />
    <glyph glyph-name="copyright" unicode="&#xa9;" horiz-adv-x="529" 
d="M264 178q42 0 42 50v63h46v-64q0 -44 -19.5 -67t-68.5 -23t-68.5 23.5t-19.5 67.5v243q0 44 19.5 67.5t68.5 23.5t68.5 -23t19.5 -67v-53h-46v52q0 50 -42 50q-23 0 -32 -12.5t-9 -37.5v-243q0 -50 41 -50zM264 -10q-215 0 -215 234v251q0 235 215 235q214 0 214 -235
v-251q0 -234 -214 -234zM264 30q171 0 171 194v251q0 194 -171 194t-171 -194v-251q0 -57 13 -97.5t52.5 -68.5t105.5 -28z" />
    <glyph glyph-name="ordfeminine" unicode="&#xaa;" horiz-adv-x="279" 
d="M49 378v62q0 48 28 75t105 48v56q0 50 -41 50q-42 0 -42 -49v-22h-46v22q0 44 19.5 67t68.5 23q50 0 69 -23t19 -68v-323h-34q-1 4 -5 12l-6 12q-18 -34 -58 -34q-42 0 -59.5 22.5t-17.5 69.5zM182 378v148q-52 -16 -69 -36.5t-17 -60.5v-51q0 -52 44 -52q42 0 42 52z
M229 195h-175v39h175v-39z" />
    <glyph glyph-name="guillemotleft" unicode="&#xab;" horiz-adv-x="389" 
d="M39 250l106 185h61l-105 -185l105 -185h-61zM182 250l106 185h60l-104 -185l104 -185h-60z" />
    <glyph glyph-name="logicalnot" unicode="&#xac;" horiz-adv-x="360" 
d="M49 364h260v-168h-46v122h-214v46z" />
    <glyph glyph-name="uni00AD" unicode="&#xad;" horiz-adv-x="250" 
d="M39 257v46h170v-46h-170z" />
    <glyph glyph-name="registered" unicode="&#xae;" horiz-adv-x="529" 
d="M264 -10q-215 0 -215 234v251q0 235 215 235q214 0 214 -235v-251q0 -234 -214 -234zM264 30q171 0 171 194v251q0 194 -171 194t-171 -194v-251q0 -57 13 -97.5t52.5 -68.5t105.5 -28zM178 146v410h85q51 0 70.5 -23t19.5 -67v-65q0 -71 -58 -83l76 -172h-49l-71 168
h-27v-168h-46zM224 357h38q26 0 35.5 10.5t9.5 33.5v65q0 45 -45 45h-38v-154z" />
    <glyph glyph-name="macron" unicode="&#xaf;" horiz-adv-x="250" 
d="M39 593v46h170v-46h-170z" />
    <glyph glyph-name="degree" unicode="&#xb0;" horiz-adv-x="246" 
d="M122 494q-47 0 -65 27.5t-18 80.5t18 80.5t65 27.5t65 -27.5t18 -80.5t-18 -80.5t-65 -27.5zM122 532q25 0 34 17.5t9 52.5q0 34 -9 51.5t-34 17.5q-24 0 -33 -17.5t-9 -51.5q0 -35 9 -52.5t33 -17.5z" />
    <glyph glyph-name="plusminus" unicode="&#xb1;" horiz-adv-x="382" 
d="M49 136h283v-46h-283v46zM49 315v46h118v122h47v-122h118v-46h-118v-122h-47v122h-118z" />
    <glyph glyph-name="acute" unicode="&#xb4;" horiz-adv-x="177" 
d="M77 677h59l-54 -127h-43z" />
    <glyph glyph-name="mu" unicode="&#xb5;" horiz-adv-x="323" 
d="M49 500h60v-395q0 -63 53 -63q50 0 50 63v395h60v-395q0 -59 -22.5 -87t-73.5 -28q-46 0 -67 36v-186h-60v660z" />
    <glyph glyph-name="mu" unicode="&#x3bc;" horiz-adv-x="323" 
d="M49 500h60v-395q0 -63 53 -63q50 0 50 63v395h60v-395q0 -59 -22.5 -87t-73.5 -28q-46 0 -67 36v-186h-60v660z" />
    <glyph glyph-name="paragraph" unicode="&#xb6;" horiz-adv-x="363" 
d="M303 700v-860h-63v350h-69q-68 0 -95 30.5t-27 88.5v270q0 59 26 90t94 31h134z" />
    <glyph glyph-name="periodcentered" unicode="&#xb7;" horiz-adv-x="167" 
d="M49 318h67v-77h-67v77z" />
    <glyph glyph-name="cedilla" unicode="&#xb8;" horiz-adv-x="214" 
d="M66 -71l19 71h34l-10 -40q64 -9 64 -64q0 -66 -88 -66h-46l10 38h33q41 0 41 30q0 31 -43 31h-14z" />
    <glyph glyph-name="ordmasculine" unicode="&#xba;" horiz-adv-x="276" 
d="M137 710q50 0 69 -23.5t19 -68.5v-241q0 -45 -19 -68.5t-69 -23.5t-69 23.5t-19 68.5v241q0 45 19 68.5t69 23.5zM137 326q42 0 42 51v241q0 51 -42 51q-41 0 -41 -51v-241q0 -51 41 -51zM225 195h-176v39h176v-39z" />
    <glyph glyph-name="guillemotright" unicode="&#xbb;" horiz-adv-x="389" 
d="M242 435l106 -185l-106 -185h-60l104 185l-104 185h60zM100 435l106 -185l-106 -185h-61l105 185l-105 185h61z" />
    <glyph glyph-name="onequarter" unicode="&#xbc;" horiz-adv-x="237" 
d="M47 363h142v-27h-142v27zM129 0v63h-69v29q56 186 60 202h37v-205h19v-26h-19v-63h-28zM84 89h45v66q0 62 1 98q-8 -27 -23 -82t-23 -82zM132 700v-267h26v-27h-80v27h26v219h-27v19q32 0 32 29h23z" />
    <glyph glyph-name="onehalf" unicode="&#xbd;" horiz-adv-x="237" 
d="M47 363h142v-27h-142v27zM132 700v-267h26v-27h-80v27h26v219h-27v19q32 0 32 29h23zM97 36v-9h72v-27h-100v34q0 34 11 60.5t24.5 41t24.5 35.5t11 44v32q0 25 -22 25q-21 0 -21 -25v-36h-29v36q0 51 50 51t50 -51v-31q0 -44 -35.5 -91t-35.5 -89z" />
    <glyph glyph-name="threequarters" unicode="&#xbe;" horiz-adv-x="237" 
d="M47 363h142v-27h-142v27zM129 0v63h-69v29q56 186 60 202h37v-205h19v-26h-19v-63h-28zM84 89h45v66q0 62 1 98q-8 -27 -23 -82t-23 -82zM103 541v27h16q20 0 20 23v59q0 28 -21 28t-21 -25v-35h-28v35q0 51 49 51t49 -51v-60q0 -30 -21 -38q22 -10 22 -40v-61
q0 -52 -49 -52q-50 0 -50 52v34h28v-31q0 -30 22 -30q21 0 21 27v60q0 27 -11 27h-26z" />
    <glyph glyph-name="questiondown" unicode="&#xbf;" horiz-adv-x="329" 
d="M142 270h44v-20q0 -57 -7.5 -93.5t-18.5 -53t-22 -30t-18.5 -36.5t-7.5 -60v-64q0 -66 52 -66q30 0 40.5 16.5t10.5 49.5v72h63v-72q0 -60 -24 -91.5t-90 -31.5t-90.5 31.5t-24.5 91.5v62q0 48 9 78.5t22 46.5t26.5 32.5t23.5 50.5t12 87zM200 423h-72v77h72v-77z" />
    <glyph glyph-name="Agrave" unicode="&#xc0;" horiz-adv-x="324" 
d="M201 700l95 -700h-64l-19 160h-103l-19 -160h-64l96 700h78zM162 604l-46 -386h90zM88 877h60l37 -127h-42z" />
    <glyph glyph-name="Aacute" unicode="&#xc1;" horiz-adv-x="324" 
d="M201 700l95 -700h-64l-19 160h-103l-19 -160h-64l96 700h78zM162 604l-46 -386h90zM173 877h59l-54 -127h-43z" />
    <glyph glyph-name="Acircumflex" unicode="&#xc2;" horiz-adv-x="324" 
d="M201 700l95 -700h-64l-19 160h-103l-19 -160h-64l96 700h78zM162 604l-46 -386h90zM135 877h52l56 -127h-44l-38 74l-37 -74h-44z" />
    <glyph glyph-name="Atilde" unicode="&#xc3;" horiz-adv-x="324" 
d="M201 700l95 -700h-64l-19 160h-103l-19 -160h-64l96 700h78zM162 604l-46 -386h90zM210 750q-27 0 -52 21t-41 21q-28 0 -28 -32h-38q0 42 14 61.5t49 19.5q27 0 52 -21t41 -21q28 0 28 32h38q0 -42 -14.5 -61.5t-48.5 -19.5z" />
    <glyph glyph-name="Adieresis" unicode="&#xc4;" horiz-adv-x="324" 
d="M201 700l95 -700h-64l-19 160h-103l-19 -160h-64l96 700h78zM162 604l-46 -386h90zM77 824h61v-74h-61v74zM185 824h61v-74h-61v74z" />
    <glyph glyph-name="Aring" unicode="&#xc5;" horiz-adv-x="324" 
d="M201 700l95 -700h-64l-19 160h-103l-19 -160h-64l96 700h78zM162 604l-46 -386h90zM230 808q0 -75 -68 -75t-68 75q0 77 68 77t68 -77zM191 808q0 43 -29 43t-29 -43q0 -41 29 -41t29 41z" />
    <glyph glyph-name="AE" unicode="&#xc6;" horiz-adv-x="463" 
d="M288 324v-264h136v-60h-199v160h-101l-36 -160h-64l165 700h235v-61h-136v-257h117v-58h-117zM136 218h89v404z" />
    <glyph glyph-name="Ccedilla" unicode="&#xc7;" horiz-adv-x="330" 
d="M135 -71l16 62q-99 8 -99 121v475q0 59 26.5 91t91.5 32q117 0 117 -123v-77h-61v77q0 66 -56 66q-55 0 -55 -66v-475q0 -66 55 -66q56 0 56 66v88h61v-88q0 -114 -102 -121l-7 -31q64 -9 64 -64q0 -66 -88 -66h-46l10 38h33q41 0 41 30q0 31 -43 31h-14z" />
    <glyph glyph-name="Egrave" unicode="&#xc8;" horiz-adv-x="301" 
d="M125 324v-264h136v-60h-199v700h199v-61h-136v-257h117v-58h-117zM102 877h60l37 -127h-42z" />
    <glyph glyph-name="Eacute" unicode="&#xc9;" horiz-adv-x="301" 
d="M125 324v-264h136v-60h-199v700h199v-61h-136v-257h117v-58h-117zM140 877h59l-54 -127h-43z" />
    <glyph glyph-name="Ecircumflex" unicode="&#xca;" horiz-adv-x="301" 
d="M125 324v-264h136v-60h-199v700h199v-61h-136v-257h117v-58h-117zM124 877h52l56 -127h-44l-38 74l-37 -74h-44z" />
    <glyph glyph-name="Edieresis" unicode="&#xcb;" horiz-adv-x="301" 
d="M125 324v-264h136v-60h-199v700h199v-61h-136v-257h117v-58h-117zM66 824h61v-74h-61v74zM174 824h61v-74h-61v74z" />
    <glyph glyph-name="Igrave" unicode="&#xcc;" horiz-adv-x="188" 
d="M62 0v700h63v-700h-63zM45 877h60l37 -127h-42z" />
    <glyph glyph-name="Iacute" unicode="&#xcd;" horiz-adv-x="188" 
d="M62 0v700h63v-700h-63zM83 877h59l-54 -127h-43z" />
    <glyph glyph-name="Icircumflex" unicode="&#xce;" horiz-adv-x="188" 
d="M62 0v700h63v-700h-63zM68 877h52l56 -127h-44l-38 74l-37 -74h-44z" />
    <glyph glyph-name="Idieresis" unicode="&#xcf;" horiz-adv-x="188" 
d="M62 0v700h63v-700h-63zM10 824h61v-74h-61v74zM118 824h61v-74h-61v74z" />
    <glyph glyph-name="Eth" unicode="&#xd0;" horiz-adv-x="357" 
d="M12 331v45h49v324h116q68 0 95 -31t27 -90v-458q0 -59 -26 -90t-94 -31h-118v331h-49zM124 60h52q15 0 26 2.5t17.5 11.5t10 13.5t5 22.5t1.5 22.5v28.5v386q0 25 -1.5 38.5t-7 27.5t-18 20t-33.5 6h-52v-263h51v-45h-51v-271z" />
    <glyph glyph-name="Ntilde" unicode="&#xd1;" horiz-adv-x="386" 
d="M117 546q6 -216 6 -320v-226h-61v700h62l147 -547q-6 220 -6 320v227h61v-700h-62zM241 750q-27 0 -52 21t-41 21q-28 0 -28 -32h-38q0 42 14 61.5t49 19.5q27 0 52 -21t41 -21q28 0 28 32h38q0 -42 -14.5 -61.5t-48.5 -19.5z" />
    <glyph glyph-name="Ograve" unicode="&#xd2;" horiz-adv-x="341" 
d="M170 46q55 0 55 66v475q0 66 -55 66t-55 -66v-475q0 -66 55 -66zM170 710q65 0 91.5 -32t26.5 -91v-475q0 -59 -26.5 -90.5t-91.5 -31.5t-91.5 31.5t-26.5 90.5v475q0 59 26.5 91t91.5 32zM95 877h60l37 -127h-42z" />
    <glyph glyph-name="Oacute" unicode="&#xd3;" horiz-adv-x="341" 
d="M170 46q55 0 55 66v475q0 66 -55 66t-55 -66v-475q0 -66 55 -66zM170 710q65 0 91.5 -32t26.5 -91v-475q0 -59 -26.5 -90.5t-91.5 -31.5t-91.5 31.5t-26.5 90.5v475q0 59 26.5 91t91.5 32zM186 877h59l-54 -127h-43z" />
    <glyph glyph-name="Ocircumflex" unicode="&#xd4;" horiz-adv-x="341" 
d="M170 46q55 0 55 66v475q0 66 -55 66t-55 -66v-475q0 -66 55 -66zM170 710q65 0 91.5 -32t26.5 -91v-475q0 -59 -26.5 -90.5t-91.5 -31.5t-91.5 31.5t-26.5 90.5v475q0 59 26.5 91t91.5 32zM144 877h52l56 -127h-44l-38 74l-37 -74h-44z" />
    <glyph glyph-name="Otilde" unicode="&#xd5;" horiz-adv-x="341" 
d="M170 46q55 0 55 66v475q0 66 -55 66t-55 -66v-475q0 -66 55 -66zM170 710q65 0 91.5 -32t26.5 -91v-475q0 -59 -26.5 -90.5t-91.5 -31.5t-91.5 31.5t-26.5 90.5v475q0 59 26.5 91t91.5 32zM218 750q-27 0 -52 21t-41 21q-28 0 -28 -32h-38q0 42 14 61.5t49 19.5
q27 0 52 -21t41 -21q28 0 28 32h38q0 -42 -14.5 -61.5t-48.5 -19.5z" />
    <glyph glyph-name="Odieresis" unicode="&#xd6;" horiz-adv-x="341" 
d="M170 46q55 0 55 66v475q0 66 -55 66t-55 -66v-475q0 -66 55 -66zM170 710q65 0 91.5 -32t26.5 -91v-475q0 -59 -26.5 -90.5t-91.5 -31.5t-91.5 31.5t-26.5 90.5v475q0 59 26.5 91t91.5 32zM86 824h61v-74h-61v74zM194 824h61v-74h-61v74z" />
    <glyph glyph-name="multiply" unicode="&#xd7;" horiz-adv-x="359" 
d="M276 409l32 -32l-98 -97l98 -98l-32 -32l-97 98l-98 -98l-32 32l98 98l-98 97l32 32l98 -98z" />
    <glyph glyph-name="Oslash" unicode="&#xd8;" horiz-adv-x="341" 
d="M116 -30l3 27q-67 21 -67 115v475q0 59 26.5 91t91.5 32q9 0 23 -2l3 22h28l-3 -27q67 -21 67 -116v-475q0 -59 -26.5 -90.5t-91.5 -31.5q-10 0 -24 2l-2 -22h-28zM170 46q55 0 55 66v475q0 31 -11 47l-62 -586q5 -2 18 -2zM115 587v-475q0 -32 11 -47l61 586
q-10 2 -17 2q-55 0 -55 -66z" />
    <glyph glyph-name="Ugrave" unicode="&#xd9;" horiz-adv-x="350" 
d="M120 700v-587q0 -67 55 -67q54 0 54 67v587h63v-587q0 -123 -117 -123q-66 0 -92 32t-26 91v587h63zM102 877h60l37 -127h-42z" />
    <glyph glyph-name="Uacute" unicode="&#xda;" horiz-adv-x="350" 
d="M120 700v-587q0 -67 55 -67q54 0 54 67v587h63v-587q0 -123 -117 -123q-66 0 -92 32t-26 91v587h63zM190 877h59l-54 -127h-43z" />
    <glyph glyph-name="Ucircumflex" unicode="&#xdb;" horiz-adv-x="350" 
d="M120 700v-587q0 -67 55 -67q54 0 54 67v587h63v-587q0 -123 -117 -123q-66 0 -92 32t-26 91v587h63zM148 877h52l56 -127h-44l-38 74l-37 -74h-44z" />
    <glyph glyph-name="Udieresis" unicode="&#xdc;" horiz-adv-x="350" 
d="M120 700v-587q0 -67 55 -67q54 0 54 67v587h63v-587q0 -123 -117 -123q-66 0 -92 32t-26 91v587h63zM90 824h61v-74h-61v74zM198 824h61v-74h-61v74z" />
    <glyph glyph-name="Yacute" unicode="&#xdd;" horiz-adv-x="302" 
d="M182 0h-63v291l-97 409h66l62 -318l63 318h66l-97 -409v-291zM166 877h59l-54 -127h-43z" />
    <glyph glyph-name="Thorn" unicode="&#xde;" horiz-adv-x="334" 
d="M62 0v700h63v-142h51q68 0 94 -31t26 -90v-158q0 -58 -27 -88.5t-95 -30.5h-49v-160h-63zM125 218h48q33 0 46.5 16.5t13.5 54.5v145q0 33 -13 48t-47 15h-48v-279z" />
    <glyph glyph-name="germandbls" unicode="&#xdf;" horiz-adv-x="319" 
d="M140 -7v51q12 -2 23 -2q31 0 41 13.5t10 45.5v180q0 19 -0.5 28.5t-3.5 23.5t-8.5 20.5t-17 11.5t-28.5 5h-4v58h2q28 0 40 14.5t12 44.5v121q0 60 -50 60q-27 0 -38 -14.5t-11 -45.5v-608h-60v607q0 56 25.5 84.5t83.5 28.5q59 0 84.5 -28.5t25.5 -84.5v-114
q0 -40 -11 -60.5t-37 -32.5q56 -22 56 -92v-202q0 -59 -23.5 -87.5t-86.5 -28.5z" />
    <glyph glyph-name="agrave" unicode="&#xe0;" horiz-adv-x="308" 
d="M42 104v64q0 59 35 93t128 62v73q0 62 -49 62q-28 0 -39 -16t-11 -47v-23h-59v24q0 55 24.5 84.5t84.5 29.5q61 0 85 -29.5t24 -84.5v-396h-35l-16 30q-20 -40 -71 -40q-53 0 -77 28t-24 86zM205 104v174q-61 -19 -82 -43.5t-21 -65.5v-65q0 -62 52 -62q51 0 51 62z
M96 677h60l37 -127h-42z" />
    <glyph glyph-name="aacute" unicode="&#xe1;" horiz-adv-x="308" 
d="M42 104v64q0 59 35 93t128 62v73q0 62 -49 62q-28 0 -39 -16t-11 -47v-23h-59v24q0 55 24.5 84.5t84.5 29.5q61 0 85 -29.5t24 -84.5v-396h-35l-16 30q-20 -40 -71 -40q-53 0 -77 28t-24 86zM205 104v174q-61 -19 -82 -43.5t-21 -65.5v-65q0 -62 52 -62q51 0 51 62z
M167 677h59l-54 -127h-43z" />
    <glyph glyph-name="acircumflex" unicode="&#xe2;" horiz-adv-x="308" 
d="M42 104v64q0 59 35 93t128 62v73q0 62 -49 62q-28 0 -39 -16t-11 -47v-23h-59v24q0 55 24.5 84.5t84.5 29.5q61 0 85 -29.5t24 -84.5v-396h-35l-16 30q-20 -40 -71 -40q-53 0 -77 28t-24 86zM205 104v174q-61 -19 -82 -43.5t-21 -65.5v-65q0 -62 52 -62q51 0 51 62z
M126 677h52l56 -127h-44l-38 74l-37 -74h-44z" />
    <glyph glyph-name="atilde" unicode="&#xe3;" horiz-adv-x="308" 
d="M42 104v64q0 59 35 93t128 62v73q0 62 -49 62q-28 0 -39 -16t-11 -47v-23h-59v24q0 55 24.5 84.5t84.5 29.5q61 0 85 -29.5t24 -84.5v-396h-35l-16 30q-20 -40 -71 -40q-53 0 -77 28t-24 86zM205 104v174q-61 -19 -82 -43.5t-21 -65.5v-65q0 -62 52 -62q51 0 51 62z
M201 560q-27 0 -52 21t-41 21q-28 0 -28 -32h-38q0 42 14 61.5t49 19.5q27 0 52 -21t41 -21q28 0 28 32h38q0 -42 -14.5 -61.5t-48.5 -19.5z" />
    <glyph glyph-name="adieresis" unicode="&#xe4;" horiz-adv-x="308" 
d="M42 104v64q0 59 35 93t128 62v73q0 62 -49 62q-28 0 -39 -16t-11 -47v-23h-59v24q0 55 24.5 84.5t84.5 29.5q61 0 85 -29.5t24 -84.5v-396h-35l-16 30q-20 -40 -71 -40q-53 0 -77 28t-24 86zM205 104v174q-61 -19 -82 -43.5t-21 -65.5v-65q0 -62 52 -62q51 0 51 62z
M68 659h61v-74h-61v74zM176 659h61v-74h-61v74z" />
    <glyph glyph-name="aring" unicode="&#xe5;" horiz-adv-x="308" 
d="M42 104v64q0 59 35 93t128 62v73q0 62 -49 62q-28 0 -39 -16t-11 -47v-23h-59v24q0 55 24.5 84.5t84.5 29.5q61 0 85 -29.5t24 -84.5v-396h-35l-16 30q-20 -40 -71 -40q-53 0 -77 28t-24 86zM205 104v174q-61 -19 -82 -43.5t-21 -65.5v-65q0 -62 52 -62q51 0 51 62z
M220 622q0 -75 -68 -75t-68 75q0 77 68 77t68 -77zM181 622q0 43 -29 43t-29 -43q0 -41 29 -41t29 41z" />
    <glyph glyph-name="ae" unicode="&#xe6;" horiz-adv-x="470" 
d="M369 172h58v-66q0 -57 -24 -86.5t-86 -29.5q-61 0 -83 34q-23 -34 -83 -34q-62 0 -87 29.5t-25 86.5v62q0 59 35 93t128 62v73q0 62 -50 62q-49 0 -49 -63v-23h-59v24q0 55 24 84.5t83 29.5q57 0 83 -34q24 34 84 34q61 0 85 -30t24 -87v-144h-162v-143q0 -64 52 -64
t52 64v66zM202 106v172q-61 -19 -82 -43.5t-21 -65.5v-63q0 -64 52 -64q51 0 51 64zM368 295v98q0 30 -13.5 47.5t-37.5 17.5q-52 0 -52 -65v-98h103z" />
    <glyph glyph-name="ccedilla" unicode="&#xe7;" horiz-adv-x="312" 
d="M122 -71l16 62q-50 5 -70.5 34t-20.5 81v287q0 57 25.5 87t86.5 30t85.5 -30t24.5 -87v-55h-59v55q0 65 -51 65q-52 0 -52 -65v-287q0 -64 52 -64q51 0 51 64v66h59v-66q0 -54 -21.5 -83t-75.5 -32l-7 -31q64 -9 64 -64q0 -66 -88 -66h-46l10 38h33q41 0 41 30
q0 31 -43 31h-14z" />
    <glyph glyph-name="egrave" unicode="&#xe8;" horiz-adv-x="317" 
d="M210 172h59v-66q0 -57 -24 -86.5t-86 -29.5t-87 29.5t-25 86.5v287q0 57 25 87t87 30q61 0 85.5 -30t24.5 -87v-145h-162v-142q0 -64 52 -64q51 0 51 64v66zM210 295v97q0 34 -11.5 50t-39.5 16q-52 0 -52 -65v-98h103zM105 677h60l37 -127h-42z" />
    <glyph glyph-name="eacute" unicode="&#xe9;" horiz-adv-x="317" 
d="M210 172h59v-66q0 -57 -24 -86.5t-86 -29.5t-87 29.5t-25 86.5v287q0 57 25 87t87 30q61 0 85.5 -30t24.5 -87v-145h-162v-142q0 -64 52 -64q51 0 51 64v66zM210 295v97q0 34 -11.5 50t-39.5 16q-52 0 -52 -65v-98h103zM171 677h59l-54 -127h-43z" />
    <glyph glyph-name="ecircumflex" unicode="&#xea;" horiz-adv-x="317" 
d="M210 172h59v-66q0 -57 -24 -86.5t-86 -29.5t-87 29.5t-25 86.5v287q0 57 25 87t87 30q61 0 85.5 -30t24.5 -87v-145h-162v-142q0 -64 52 -64q51 0 51 64v66zM210 295v97q0 34 -11.5 50t-39.5 16q-52 0 -52 -65v-98h103zM127 677h52l56 -127h-44l-38 74l-37 -74h-44z" />
    <glyph glyph-name="edieresis" unicode="&#xeb;" horiz-adv-x="317" 
d="M210 172h59v-66q0 -57 -24 -86.5t-86 -29.5t-87 29.5t-25 86.5v287q0 57 25 87t87 30q61 0 85.5 -30t24.5 -87v-145h-162v-142q0 -64 52 -64q51 0 51 64v66zM210 295v97q0 34 -11.5 50t-39.5 16q-52 0 -52 -65v-98h103zM69 659h61v-74h-61v74zM177 659h61v-74h-61v74z
" />
    <glyph glyph-name="igrave" unicode="&#xec;" horiz-adv-x="161" 
d="M24 677h60l37 -127h-42zM50 500h60v-500h-60v500z" />
    <glyph glyph-name="iacute" unicode="&#xed;" horiz-adv-x="161" 
d="M93 677h59l-54 -127h-43zM50 500h60v-500h-60v500z" />
    <glyph glyph-name="icircumflex" unicode="&#xee;" horiz-adv-x="161" 
d="M50 500h60v-500h-60v500zM54 677h52l56 -127h-44l-38 74l-37 -74h-44z" />
    <glyph glyph-name="idieresis" unicode="&#xef;" horiz-adv-x="161" 
d="M-4 659h61v-74h-61v74zM104 659h61v-74h-61v74zM50 500h60v-500h-60v500z" />
    <glyph glyph-name="eth" unicode="&#xf0;" horiz-adv-x="338" 
d="M142 526l-17 38l48 22q-27 53 -78 114h66q41 -51 62 -90l50 23l17 -38l-49 -22q35 -84 35 -214v-247q0 -60 -25.5 -91t-88.5 -31t-89 31t-26 91v180q0 59 22.5 88t75.5 29q41 0 72 -29q-1 96 -28 168zM161 354q-54 0 -54 -62v-180q0 -66 55 -66t55 66v204q-19 38 -56 38z
" />
    <glyph glyph-name="ntilde" unicode="&#xf1;" 
d="M112 0h-60v500h36l16 -32q24 42 74 42q52 0 74.5 -28t22.5 -87v-395h-60v395q0 63 -50 63q-53 0 -53 -64v-394zM211 560q-27 0 -52 21t-41 21q-28 0 -28 -32h-38q0 42 14 61.5t49 19.5q27 0 52 -21t41 -21q28 0 28 32h38q0 -42 -14.5 -61.5t-48.5 -19.5z" />
    <glyph glyph-name="ograve" unicode="&#xf2;" horiz-adv-x="318" 
d="M159 510q61 0 86 -30t25 -87v-287q0 -57 -24.5 -86.5t-86.5 -29.5t-87 29.5t-25 86.5v287q0 57 25.5 87t86.5 30zM159 42q51 0 51 64v287q0 65 -51 65q-52 0 -52 -65v-287q0 -64 52 -64zM86 677h60l37 -127h-42z" />
    <glyph glyph-name="oacute" unicode="&#xf3;" horiz-adv-x="318" 
d="M159 510q61 0 86 -30t25 -87v-287q0 -57 -24.5 -86.5t-86.5 -29.5t-87 29.5t-25 86.5v287q0 57 25.5 87t86.5 30zM159 42q51 0 51 64v287q0 65 -51 65q-52 0 -52 -65v-287q0 -64 52 -64zM172 677h59l-54 -127h-43z" />
    <glyph glyph-name="ocircumflex" unicode="&#xf4;" horiz-adv-x="318" 
d="M159 510q61 0 86 -30t25 -87v-287q0 -57 -24.5 -86.5t-86.5 -29.5t-87 29.5t-25 86.5v287q0 57 25.5 87t86.5 30zM159 42q51 0 51 64v287q0 65 -51 65q-52 0 -52 -65v-287q0 -64 52 -64zM132 677h52l56 -127h-44l-38 74l-37 -74h-44z" />
    <glyph glyph-name="otilde" unicode="&#xf5;" horiz-adv-x="318" 
d="M159 510q61 0 86 -30t25 -87v-287q0 -57 -24.5 -86.5t-86.5 -29.5t-87 29.5t-25 86.5v287q0 57 25.5 87t86.5 30zM159 42q51 0 51 64v287q0 65 -51 65q-52 0 -52 -65v-287q0 -64 52 -64zM206 560q-27 0 -52 21t-41 21q-28 0 -28 -32h-38q0 42 14 61.5t49 19.5
q27 0 52 -21t41 -21q28 0 28 32h38q0 -42 -14.5 -61.5t-48.5 -19.5z" />
    <glyph glyph-name="odieresis" unicode="&#xf6;" horiz-adv-x="318" 
d="M159 510q61 0 86 -30t25 -87v-287q0 -57 -24.5 -86.5t-86.5 -29.5t-87 29.5t-25 86.5v287q0 57 25.5 87t86.5 30zM159 42q51 0 51 64v287q0 65 -51 65q-52 0 -52 -65v-287q0 -64 52 -64zM74 659h61v-74h-61v74zM182 659h61v-74h-61v74z" />
    <glyph glyph-name="divide" unicode="&#xf7;" horiz-adv-x="390" 
d="M49 303h290v-46h-290v46zM161 193h67v-77h-67v77zM161 443h67v-77h-67v77z" />
    <glyph glyph-name="oslash" unicode="&#xf8;" horiz-adv-x="313" 
d="M156 510q16 0 29 -3l4 23h26l-5 -29q57 -23 57 -108v-287q0 -57 -24.5 -86.5t-86.5 -29.5q-12 0 -30 2l-4 -22h-25l4 28q-57 21 -57 108v287q0 57 25.5 87t86.5 30zM99 106q0 -34 12 -50l66 403q-12 4 -21 4q-57 0 -57 -70v-287zM156 37q30 0 43 17t13 52v287
q0 34 -12 50l-66 -404q12 -2 22 -2z" />
    <glyph glyph-name="ugrave" unicode="&#xf9;" 
d="M215 500h60v-500h-35l-16 32q-22 -42 -75 -42q-52 0 -74.5 28t-22.5 87v395h60v-395q0 -63 51 -63q52 0 52 63v395zM89 677h60l37 -127h-42z" />
    <glyph glyph-name="uacute" unicode="&#xfa;" 
d="M215 500h60v-500h-35l-16 32q-22 -42 -75 -42q-52 0 -74.5 28t-22.5 87v395h60v-395q0 -63 51 -63q52 0 52 63v395zM182 677h59l-54 -127h-43z" />
    <glyph glyph-name="ucircumflex" unicode="&#xfb;" 
d="M215 500h60v-500h-35l-16 32q-22 -42 -75 -42q-52 0 -74.5 28t-22.5 87v395h60v-395q0 -63 51 -63q52 0 52 63v395zM137 677h52l56 -127h-44l-38 74l-37 -74h-44z" />
    <glyph glyph-name="udieresis" unicode="&#xfc;" 
d="M215 500h60v-500h-35l-16 32q-22 -42 -75 -42q-52 0 -74.5 28t-22.5 87v395h60v-395q0 -63 51 -63q52 0 52 63v395zM79 659h61v-74h-61v74zM187 659h61v-74h-61v74z" />
    <glyph glyph-name="yacute" unicode="&#xfd;" horiz-adv-x="301" 
d="M56 -170q-24 0 -39 5v54q17 -7 39 -7q44 0 56 58l11 59l-98 501h62l65 -391l64 391h62l-108 -562q-12 -59 -36.5 -83.5t-77.5 -24.5zM174 677h59l-54 -127h-43z" />
    <glyph glyph-name="thorn" unicode="&#xfe;" 
d="M52 -160v870h60v-236q22 36 68 36q51 0 73 -28t22 -87v-290q0 -115 -95 -115q-46 0 -68 36v-186h-60zM112 394v-251q0 -21 0.5 -31.5t3 -26.5t8 -23.5t16 -13.5t25.5 -6q50 0 50 63v254q0 21 -0.5 31.5t-3 26t-7.5 22.5t-14.5 13t-24.5 6q-53 0 -53 -64z" />
    <glyph glyph-name="ydieresis" unicode="&#xff;" horiz-adv-x="301" 
d="M56 -170q-24 0 -39 5v54q17 -7 39 -7q44 0 56 58l11 59l-98 501h62l65 -391l64 391h62l-108 -562q-12 -59 -36.5 -83.5t-77.5 -24.5zM65 659h61v-74h-61v74zM173 659h61v-74h-61v74z" />
    <glyph glyph-name="Amacron" unicode="&#x100;" horiz-adv-x="324" 
d="M201 700l95 -700h-64l-19 160h-103l-19 -160h-64l96 700h78zM162 604l-46 -386h90zM77 750v46h170v-46h-170z" />
    <glyph glyph-name="amacron" unicode="&#x101;" horiz-adv-x="308" 
d="M42 104v64q0 59 35 93t128 62v73q0 62 -49 62q-28 0 -39 -16t-11 -47v-23h-59v24q0 55 24.5 84.5t84.5 29.5q61 0 85 -29.5t24 -84.5v-396h-35l-16 30q-20 -40 -71 -40q-53 0 -77 28t-24 86zM205 104v174q-61 -19 -82 -43.5t-21 -65.5v-65q0 -62 52 -62q51 0 51 62z
M67 593v46h170v-46h-170z" />
    <glyph glyph-name="Abreve" unicode="&#x102;" horiz-adv-x="324" 
d="M201 700l95 -700h-64l-19 160h-103l-19 -160h-64l96 700h78zM162 604l-46 -386h90zM201 836h39q0 -101 -79 -101q-78 0 -78 101h38q0 -55 40 -55t40 55z" />
    <glyph glyph-name="abreve" unicode="&#x103;" horiz-adv-x="308" 
d="M42 104v64q0 59 35 93t128 62v73q0 62 -49 62q-28 0 -39 -16t-11 -47v-23h-59v24q0 55 24.5 84.5t84.5 29.5q61 0 85 -29.5t24 -84.5v-396h-35l-16 30q-20 -40 -71 -40q-53 0 -77 28t-24 86zM205 104v174q-61 -19 -82 -43.5t-21 -65.5v-65q0 -62 52 -62q51 0 51 62z
M192 658h39q0 -101 -79 -101q-78 0 -78 101h38q0 -55 40 -55t40 55z" />
    <glyph glyph-name="Aogonek" unicode="&#x104;" horiz-adv-x="324" 
d="M284 -115h12v-55h-12q-84 0 -84 68q0 60 58 102h-26l-19 160h-103l-19 -160h-64l96 700h78l95 -700q-47 -36 -47 -83q0 -32 35 -32zM162 604l-46 -386h90z" />
    <glyph glyph-name="aogonek" unicode="&#x105;" horiz-adv-x="313" 
d="M253 -115h12v-55h-12q-84 0 -84 68q0 60 60 103l-15 29q-20 -40 -71 -40q-53 0 -77 28t-24 86v64q0 59 35 93t128 62v73q0 62 -49 62q-28 0 -39 -16t-11 -47v-23h-59v24q0 55 24.5 84.5t84.5 29.5q61 0 85 -29.5t24 -84.5v-396q-47 -36 -47 -83q0 -32 35 -32zM205 104
v174q-61 -19 -82 -43.5t-21 -65.5v-65q0 -62 52 -62q51 0 51 62z" />
    <glyph glyph-name="Cacute" unicode="&#x106;" horiz-adv-x="329" 
d="M226 112v88h61v-88q0 -122 -117 -122q-65 0 -91.5 31.5t-26.5 90.5v475q0 59 26.5 91t91.5 32q117 0 117 -123v-77h-61v77q0 29 -14 47.5t-42 18.5q-55 0 -55 -66v-475q0 -66 55 -66q56 0 56 66zM154 877h59l-54 -127h-43z" />
    <glyph glyph-name="cacute" unicode="&#x107;" horiz-adv-x="312" 
d="M210 172h59v-66q0 -57 -24 -86.5t-86 -29.5t-87 29.5t-25 86.5v287q0 57 25.5 87t86.5 30t85.5 -30t24.5 -87v-55h-59v55q0 65 -51 65q-52 0 -52 -65v-287q0 -64 52 -64q51 0 51 64v66zM176 677h59l-54 -127h-43z" />
    <glyph glyph-name="Ccircumflex" unicode="&#x108;" horiz-adv-x="329" 
d="M226 112v88h61v-88q0 -122 -117 -122q-65 0 -91.5 31.5t-26.5 90.5v475q0 59 26.5 91t91.5 32q117 0 117 -123v-77h-61v77q0 29 -14 47.5t-42 18.5q-55 0 -55 -66v-475q0 -66 55 -66q56 0 56 66zM138 877h52l56 -127h-44l-38 74l-37 -74h-44z" />
    <glyph glyph-name="ccircumflex" unicode="&#x109;" horiz-adv-x="312" 
d="M210 172h59v-66q0 -57 -24 -86.5t-86 -29.5t-87 29.5t-25 86.5v287q0 57 25.5 87t86.5 30t85.5 -30t24.5 -87v-55h-59v55q0 65 -51 65q-52 0 -52 -65v-287q0 -64 52 -64q51 0 51 64v66zM129 677h52l56 -127h-44l-38 74l-37 -74h-44z" />
    <glyph glyph-name="Cdotaccent" unicode="&#x10a;" horiz-adv-x="329" 
d="M226 112v88h61v-88q0 -122 -117 -122q-65 0 -91.5 31.5t-26.5 90.5v475q0 59 26.5 91t91.5 32q117 0 117 -123v-77h-61v77q0 29 -14 47.5t-42 18.5q-55 0 -55 -66v-475q0 -66 55 -66q56 0 56 66zM134 824h61v-74h-61v74z" />
    <glyph glyph-name="cdotaccent" unicode="&#x10b;" horiz-adv-x="312" 
d="M210 172h59v-66q0 -57 -24 -86.5t-86 -29.5t-87 29.5t-25 86.5v287q0 57 25.5 87t86.5 30t85.5 -30t24.5 -87v-55h-59v55q0 65 -51 65q-52 0 -52 -65v-287q0 -64 52 -64q51 0 51 64v66zM124 659h61v-74h-61v74z" />
    <glyph glyph-name="Ccaron" unicode="&#x10c;" horiz-adv-x="329" 
d="M226 112v88h61v-88q0 -122 -117 -122q-65 0 -91.5 31.5t-26.5 90.5v475q0 59 26.5 91t91.5 32q117 0 117 -123v-77h-61v77q0 29 -14 47.5t-42 18.5q-55 0 -55 -66v-475q0 -66 55 -66q56 0 56 66zM190 750h-52l-55 127h44l37 -74l38 74h44z" />
    <glyph glyph-name="ccaron" unicode="&#x10d;" horiz-adv-x="312" 
d="M210 172h59v-66q0 -57 -24 -86.5t-86 -29.5t-87 29.5t-25 86.5v287q0 57 25.5 87t86.5 30t85.5 -30t24.5 -87v-55h-59v55q0 65 -51 65q-52 0 -52 -65v-287q0 -64 52 -64q51 0 51 64v66zM181 550h-52l-55 127h44l37 -74l38 74h44z" />
    <glyph glyph-name="Dcaron" unicode="&#x10e;" horiz-adv-x="358" 
d="M125 60h52q34 0 47 15t13 46v458q0 30 -13 45t-47 15h-52v-579zM62 0v700h116q68 0 95 -31t27 -90v-458q0 -59 -26 -90t-94 -31h-118zM204 750h-52l-55 127h44l37 -74l38 74h44z" />
    <glyph glyph-name="dcaron" unicode="&#x10f;" horiz-adv-x="347" 
d="M275 0h-36l-16 31q-22 -41 -74 -41t-74.5 28t-22.5 87v289q0 60 22 88t73 28q46 0 68 -36v236h60v-710zM215 106v286q0 66 -53 66q-50 0 -50 -64v-288q0 -64 50 -64q53 0 53 64zM305 710h54l-27 -160h-27v160z" />
    <glyph glyph-name="Dcroat" unicode="&#x110;" horiz-adv-x="357" 
d="M12 331v45h49v324h116q68 0 95 -31t27 -90v-458q0 -59 -26 -90t-94 -31h-118v331h-49zM124 60h52q15 0 26 2.5t17.5 11.5t10 13.5t5 22.5t1.5 22.5v28.5v386q0 25 -1.5 38.5t-7 27.5t-18 20t-33.5 6h-52v-263h51v-45h-51v-271z" />
    <glyph glyph-name="dcroat" unicode="&#x111;" 
d="M140 583v46h75v81h60v-710h-35l-16 31q-22 -41 -75 -41q-52 0 -74.5 28t-22.5 87v289q0 60 22.5 88t73.5 28q45 0 67 -36v109h-75zM215 124v268q0 66 -52 66q-51 0 -51 -71v-281q0 -64 51 -64q30 0 41 21t11 61z" />
    <glyph glyph-name="Emacron" unicode="&#x112;" horiz-adv-x="301" 
d="M125 324v-264h136v-60h-199v700h199v-61h-136v-257h117v-58h-117zM65 750v46h170v-46h-170z" />
    <glyph glyph-name="emacron" unicode="&#x113;" horiz-adv-x="317" 
d="M210 172h59v-66q0 -57 -24 -86.5t-86 -29.5t-87 29.5t-25 86.5v287q0 57 25 87t87 30q61 0 85.5 -30t24.5 -87v-145h-162v-142q0 -64 52 -64q51 0 51 64v66zM210 295v97q0 34 -11.5 50t-39.5 16q-52 0 -52 -65v-98h103zM69 593v46h170v-46h-170z" />
    <glyph glyph-name="Ebreve" unicode="&#x114;" horiz-adv-x="301" 
d="M125 324v-264h136v-60h-199v700h199v-61h-136v-257h117v-58h-117zM190 836h39q0 -101 -79 -101q-78 0 -78 101h38q0 -55 40 -55t40 55z" />
    <glyph glyph-name="ebreve" unicode="&#x115;" horiz-adv-x="317" 
d="M210 172h59v-66q0 -57 -24 -86.5t-86 -29.5t-87 29.5t-25 86.5v287q0 57 25 87t87 30q61 0 85.5 -30t24.5 -87v-145h-162v-142q0 -64 52 -64q51 0 51 64v66zM210 295v97q0 34 -11.5 50t-39.5 16q-52 0 -52 -65v-98h103zM193 658h39q0 -101 -79 -101q-78 0 -78 101h38
q0 -55 40 -55t40 55z" />
    <glyph glyph-name="Edotaccent" unicode="&#x116;" horiz-adv-x="301" 
d="M125 324v-264h136v-60h-199v700h199v-61h-136v-257h117v-58h-117zM120 824h61v-74h-61v74z" />
    <glyph glyph-name="edotaccent" unicode="&#x117;" horiz-adv-x="317" 
d="M210 172h59v-66q0 -57 -24 -86.5t-86 -29.5t-87 29.5t-25 86.5v287q0 57 25 87t87 30q61 0 85.5 -30t24.5 -87v-145h-162v-142q0 -64 52 -64q51 0 51 64v66zM210 295v97q0 34 -11.5 50t-39.5 16q-52 0 -52 -65v-98h103zM123 659h61v-74h-61v74z" />
    <glyph glyph-name="Eogonek" unicode="&#x118;" horiz-adv-x="304" 
d="M249 -115h12v-55h-12q-84 0 -84 68q0 60 58 102h-161v700h199v-61h-136v-257h117v-58h-117v-264h136v-60q-47 -36 -47 -83q0 -32 35 -32z" />
    <glyph glyph-name="eogonek" unicode="&#x119;" horiz-adv-x="317" 
d="M214 -109h11v-54h-12q-83 0 -83 68q0 48 38 86q-2 0 -5 -0.5t-5 -0.5q-62 0 -86.5 29.5t-24.5 86.5v287q0 57 25 87t86 30q62 0 86.5 -30t24.5 -87v-145h-162v-142q0 -64 51 -64q52 0 52 64v66h59v-66q0 -80 -49 -104q-41 -33 -41 -79q0 -32 35 -32zM210 295v77
q0 46 -10 66t-42 20q-51 0 -51 -65v-98h103z" />
    <glyph glyph-name="Ecaron" unicode="&#x11a;" horiz-adv-x="301" 
d="M125 324v-264h136v-60h-199v700h199v-61h-136v-257h117v-58h-117zM176 750h-52l-55 127h44l37 -74l38 74h44z" />
    <glyph glyph-name="ecaron" unicode="&#x11b;" horiz-adv-x="317" 
d="M210 172h59v-66q0 -57 -24 -86.5t-86 -29.5t-87 29.5t-25 86.5v287q0 57 25 87t87 30q61 0 85.5 -30t24.5 -87v-145h-162v-142q0 -64 52 -64q51 0 51 64v66zM210 295v97q0 34 -11.5 50t-39.5 16q-52 0 -52 -65v-98h103zM179 550h-52l-55 127h44l37 -74l38 74h44z" />
    <glyph glyph-name="Gcircumflex" unicode="&#x11c;" horiz-adv-x="346" 
d="M175 324v58h118v-270q0 -59 -26.5 -90.5t-91.5 -31.5t-91.5 31.5t-26.5 90.5v476q0 59 26.5 90.5t91.5 31.5q64 0 90.5 -32t26.5 -90v-78h-62v78q0 65 -55 65t-55 -65v-476q0 -66 55 -66t55 66v212h-55zM146 877h52l56 -127h-44l-38 74l-37 -74h-44z" />
    <glyph glyph-name="gcircumflex" unicode="&#x11d;" horiz-adv-x="318" 
d="M155 113q-41 0 -41 -28t41 -28q67 0 96 -28.5t29 -81.5v-9q0 -108 -124 -108t-124 108v9q0 77 63 100q-26 12 -26 38t28 38q-53 22 -53 107v162q0 57 25 87.5t86 30.5q24 0 47 -7q19 58 70 58q17 0 29 -4v-47q-18 5 -32 5q-28 0 -41 -24q39 -27 39 -99v-162
q0 -57 -25 -87t-87 -30zM155 458q-29 0 -40 -16.5t-11 -53.5v-160q0 -33 11.5 -49.5t39.5 -16.5t40 16t12 54v160q0 66 -52 66zM156 14q-65 0 -65 -62v-9q0 -61 65 -61t65 61v9q0 62 -65 62zM123 677h52l56 -127h-44l-38 74l-37 -74h-44z" />
    <glyph glyph-name="Gbreve" unicode="&#x11e;" horiz-adv-x="346" 
d="M175 324v58h118v-270q0 -59 -26.5 -90.5t-91.5 -31.5t-91.5 31.5t-26.5 90.5v476q0 59 26.5 90.5t91.5 31.5q64 0 90.5 -32t26.5 -90v-78h-62v78q0 65 -55 65t-55 -65v-476q0 -66 55 -66t55 66v212h-55zM212 836h39q0 -101 -79 -101q-78 0 -78 101h38q0 -55 40 -55t40 55
z" />
    <glyph glyph-name="gbreve" unicode="&#x11f;" horiz-adv-x="318" 
d="M155 113q-41 0 -41 -28t41 -28q67 0 96 -28.5t29 -81.5v-9q0 -108 -124 -108t-124 108v9q0 77 63 100q-26 12 -26 38t28 38q-53 22 -53 107v162q0 57 25 87.5t86 30.5q24 0 47 -7q19 58 70 58q17 0 29 -4v-47q-18 5 -32 5q-28 0 -41 -24q39 -27 39 -99v-162
q0 -57 -25 -87t-87 -30zM155 458q-29 0 -40 -16.5t-11 -53.5v-160q0 -33 11.5 -49.5t39.5 -16.5t40 16t12 54v160q0 66 -52 66zM156 14q-65 0 -65 -62v-9q0 -61 65 -61t65 61v9q0 62 -65 62zM190 658h39q0 -101 -79 -101q-78 0 -78 101h38q0 -55 40 -55t40 55z" />
    <glyph glyph-name="Gdotaccent" unicode="&#x120;" horiz-adv-x="346" 
d="M175 324v58h118v-270q0 -59 -26.5 -90.5t-91.5 -31.5t-91.5 31.5t-26.5 90.5v476q0 59 26.5 90.5t91.5 31.5q64 0 90.5 -32t26.5 -90v-78h-62v78q0 65 -55 65t-55 -65v-476q0 -66 55 -66t55 66v212h-55zM142 824h61v-74h-61v74z" />
    <glyph glyph-name="gdotaccent" unicode="&#x121;" horiz-adv-x="318" 
d="M155 113q-41 0 -41 -28t41 -28q67 0 96 -28.5t29 -81.5v-9q0 -108 -124 -108t-124 108v9q0 77 63 100q-26 12 -26 38t28 38q-53 22 -53 107v162q0 57 25 87.5t86 30.5q24 0 47 -7q19 58 70 58q17 0 29 -4v-47q-18 5 -32 5q-28 0 -41 -24q39 -27 39 -99v-162
q0 -57 -25 -87t-87 -30zM155 458q-29 0 -40 -16.5t-11 -53.5v-160q0 -33 11.5 -49.5t39.5 -16.5t40 16t12 54v160q0 66 -52 66zM156 14q-65 0 -65 -62v-9q0 -61 65 -61t65 61v9q0 62 -65 62zM120 659h61v-74h-61v74z" />
    <glyph glyph-name="Gcommaaccent" unicode="&#x122;" horiz-adv-x="351" 
d="M175 324v58h118v-270q0 -59 -26.5 -90.5t-91.5 -31.5t-91.5 31.5t-26.5 90.5v476q0 59 26.5 90.5t91.5 31.5q64 0 90.5 -32t26.5 -90v-78h-62v78q0 65 -55 65t-55 -65v-476q0 -66 55 -66t55 66v212h-55zM140 -48h63l-26 -122h-37v122z" />
    <glyph glyph-name="gcommaaccent" unicode="&#x123;" horiz-adv-x="318" 
d="M155 113q-41 0 -41 -28t41 -28q67 0 96 -28.5t29 -81.5v-9q0 -108 -124 -108t-124 108v9q0 77 63 100q-26 12 -26 38t28 38q-53 22 -53 107v162q0 57 25 87.5t86 30.5q24 0 47 -7q19 58 70 58q17 0 29 -4v-47q-18 5 -32 5q-28 0 -41 -24q39 -27 39 -99v-162
q0 -57 -25 -87t-87 -30zM155 458q-29 0 -40 -16.5t-11 -53.5v-160q0 -33 11.5 -49.5t39.5 -16.5t40 16t12 54v160q0 66 -52 66zM156 14q-65 0 -65 -62v-9q0 -61 65 -61t65 61v9q0 62 -65 62zM192 546h-63l26 122h37v-122z" />
    <glyph glyph-name="Hcircumflex" unicode="&#x124;" horiz-adv-x="364" 
d="M125 324v-324h-63v700h63v-318h113v318h63v-700h-63v324h-113zM155 877h52l56 -127h-44l-38 74l-37 -74h-44z" />
    <glyph glyph-name="hcircumflex" unicode="&#x125;" horiz-adv-x="323" 
d="M151 677h52l56 -127h-44l-38 74l-37 -74h-28v-77q22 37 67 37q51 0 73.5 -28t22.5 -87v-395h-60v395q0 63 -50 63q-53 0 -53 -64v-394h-60v710h60v-123z" />
    <glyph glyph-name="Hbar" unicode="&#x126;" horiz-adv-x="364" 
d="M26 522v34h36v144h63v-144h113v144h63v-144h36v-34h-36v-522h-63v324h-113v-324h-63v522h-36zM125 382h113v140h-113v-140z" />
    <glyph glyph-name="hbar" unicode="&#x127;" horiz-adv-x="323" 
d="M109 0h-60v710h60v-81h150v-46h-150v-110q22 37 67 37q51 0 73.5 -28t22.5 -87v-395h-60v395q0 63 -51 63q-13 0 -22.5 -3.5t-15 -13t-8.5 -16.5t-4.5 -23t-1.5 -23.5v-26.5v-352z" />
    <glyph glyph-name="Itilde" unicode="&#x128;" horiz-adv-x="188" 
d="M62 0v700h63v-700h-63zM142 750q-27 0 -52 21t-41 21q-28 0 -28 -32h-38q0 42 14 61.5t49 19.5q27 0 52 -21t41 -21q28 0 28 32h38q0 -42 -14.5 -61.5t-48.5 -19.5z" />
    <glyph glyph-name="itilde" unicode="&#x129;" horiz-adv-x="161" 
d="M129 560q-27 0 -52 21t-41 21q-28 0 -28 -32h-38q0 42 14 61.5t49 19.5q27 0 52 -21t41 -21q28 0 28 32h38q0 -42 -14.5 -61.5t-48.5 -19.5zM50 500h60v-500h-60v500z" />
    <glyph glyph-name="Imacron" unicode="&#x12a;" horiz-adv-x="188" 
d="M62 0v700h63v-700h-63zM9 750v46h170v-46h-170z" />
    <glyph glyph-name="imacron" unicode="&#x12b;" horiz-adv-x="161" 
d="M-5 593v46h170v-46h-170zM50 500h60v-500h-60v500z" />
    <glyph glyph-name="Ibreve" unicode="&#x12c;" horiz-adv-x="188" 
d="M62 0v700h63v-700h-63zM134 836h39q0 -101 -79 -101q-78 0 -78 101h38q0 -55 40 -55t40 55z" />
    <glyph glyph-name="ibreve" unicode="&#x12d;" horiz-adv-x="161" 
d="M120 658h39q0 -101 -79 -101q-78 0 -78 101h38q0 -55 40 -55t40 55zM50 500h60v-500h-60v500z" />
    <glyph glyph-name="Iogonek" unicode="&#x12e;" horiz-adv-x="188" 
d="M62 0v700h63v-700q-47 -36 -47 -83q0 -32 35 -32h12v-55h-12q-84 0 -84 68q0 60 58 102h-25z" />
    <glyph glyph-name="iogonek" unicode="&#x12f;" horiz-adv-x="161" 
d="M98 -115h12v-55h-12q-84 0 -84 68q0 60 58 102h-22v500h60v-500q-47 -36 -47 -83q0 -32 35 -32zM49 658h61v-74h-61v74z" />
    <glyph glyph-name="Idotaccent" unicode="&#x130;" horiz-adv-x="188" 
d="M62 0v700h63v-700h-63zM63 824h61v-74h-61v74z" />
    <glyph glyph-name="dotlessi" unicode="&#x131;" horiz-adv-x="161" 
d="M50 500h60v-500h-60v500z" />
    <glyph glyph-name="Jcircumflex" unicode="&#x134;" horiz-adv-x="322" 
d="M95 200v-89q0 -65 51 -65q29 0 39.5 16.5t10.5 48.5v589h63v-589q0 -60 -24.5 -90.5t-88.5 -30.5q-114 0 -114 121v89h63zM134 877h52l56 -127h-44l-38 74l-37 -74h-44z" />
    <glyph glyph-name="jcircumflex" unicode="&#x135;" horiz-adv-x="164" 
d="M50 -58v558h60v-558q0 -58 -23.5 -85t-83.5 -27q-21 0 -38 6v53q14 -7 36 -7q27 0 38 13.5t11 46.5zM54 677h52l56 -127h-44l-38 74l-37 -74h-44z" />
    <glyph glyph-name="Kcommaaccent" unicode="&#x136;" horiz-adv-x="330" 
d="M125 700v-320l116 320h70l-135 -347l141 -353h-69l-123 326v-326h-63v700h63zM148 -48h63l-26 -122h-37v122z" />
    <glyph glyph-name="kcommaaccent" unicode="&#x137;" horiz-adv-x="298" 
d="M112 710v-428l97 218h66l-113 -241l123 -259h-67l-106 234v-234h-60v710h60zM114 -48h63l-26 -122h-37v122z" />
    <glyph glyph-name="kgreenlandic" unicode="&#x138;" horiz-adv-x="298" 
d="M112 500v-218l97 218h66l-113 -241l123 -259h-67l-106 234v-234h-60v500h60z" />
    <glyph glyph-name="Lacute" unicode="&#x139;" horiz-adv-x="258" 
d="M62 0v700h63v-640h110v-60h-173zM107 877h59l-54 -127h-43z" />
    <glyph glyph-name="lacute" unicode="&#x13a;" horiz-adv-x="160" 
d="M52 710h60v-710h-60v710zM96 877h59l-54 -127h-43z" />
    <glyph glyph-name="Lcommaaccent" unicode="&#x13b;" horiz-adv-x="252" 
d="M62 0v700h63v-640h110v-60h-173zM111 -48h63l-26 -122h-37v122z" />
    <glyph glyph-name="lcommaaccent" unicode="&#x13c;" horiz-adv-x="160" 
d="M52 710h60v-710h-60v710zM47 -48h63l-26 -122h-37v122z" />
    <glyph glyph-name="Lcaron" unicode="&#x13d;" horiz-adv-x="252" 
d="M62 0v700h63v-640h110v-60h-173zM155 710h54l-27 -160h-27v160z" />
    <glyph glyph-name="lcaron" unicode="&#x13e;" horiz-adv-x="160" 
d="M52 710h60v-710h-60v710zM135 710h54l-27 -160h-27v160z" />
    <glyph glyph-name="Ldot" unicode="&#x13f;" horiz-adv-x="252" 
d="M62 0v700h63v-640h110v-60h-173zM148 318h67v-77h-67v77z" />
    <glyph glyph-name="ldot" unicode="&#x140;" horiz-adv-x="216" 
d="M52 710h60v-710h-60v710zM150 318h67v-77h-67v77z" />
    <glyph glyph-name="Lslash" unicode="&#x141;" horiz-adv-x="258" 
d="M9 240v46l53 20v394h63v-371l65 25v-46l-65 -25v-223h110v-60h-173v261z" />
    <glyph glyph-name="lslash" unicode="&#x142;" horiz-adv-x="160" 
d="M49 710h60v-381l57 21v-46l-57 -21v-283h-60v261l-56 -21v46l56 21v403z" />
    <glyph glyph-name="Nacute" unicode="&#x143;" horiz-adv-x="386" 
d="M117 546q6 -216 6 -320v-226h-61v700h62l147 -547q-6 220 -6 320v227h61v-700h-62zM211 877h59l-54 -127h-43z" />
    <glyph glyph-name="nacute" unicode="&#x144;" 
d="M112 0h-60v500h36l16 -32q24 42 74 42q52 0 74.5 -28t22.5 -87v-395h-60v395q0 63 -50 63q-53 0 -53 -64v-394zM182 677h59l-54 -127h-43z" />
    <glyph glyph-name="Ncommaaccent" unicode="&#x145;" horiz-adv-x="389" 
d="M117 546q6 -216 6 -320v-226h-61v700h62l147 -547q-6 220 -6 320v227h61v-700h-62zM162 -48h63l-26 -122h-37v122z" />
    <glyph glyph-name="ncommaaccent" unicode="&#x146;" 
d="M112 0h-60v500h36l16 -32q24 42 74 42q52 0 74.5 -28t22.5 -87v-395h-60v395q0 63 -50 63q-53 0 -53 -64v-394zM132 -48h63l-26 -122h-37v122z" />
    <glyph glyph-name="Ncaron" unicode="&#x147;" horiz-adv-x="386" 
d="M117 546q6 -216 6 -320v-226h-61v700h62l147 -547q-6 220 -6 320v227h61v-700h-62zM218 750h-52l-55 127h44l37 -74l38 74h44z" />
    <glyph glyph-name="ncaron" unicode="&#x148;" 
d="M112 0h-60v500h36l16 -32q24 42 74 42q52 0 74.5 -28t22.5 -87v-395h-60v395q0 63 -50 63q-53 0 -53 -64v-394zM189 550h-52l-55 127h44l37 -74l38 74h44z" />
    <glyph glyph-name="Eng" unicode="&#x14a;" horiz-adv-x="389" 
d="M266 -58v58q-89 324 -149 545q6 -206 6 -303v-242h-61v700h62l147 -545q-6 156 -6 302v243h61v-758q0 -58 -23.5 -85t-83.5 -27q-23 0 -39 6v53q14 -7 37 -7q27 0 38 13.5t11 46.5z" />
    <glyph glyph-name="eng" unicode="&#x14b;" 
d="M215 -58v453q0 63 -51 63q-52 0 -52 -64v-394h-60v500h36l16 -32q24 42 74 42q52 0 74.5 -28t22.5 -87v-453q0 -58 -23 -85t-83 -27q-23 0 -39 6v53q14 -7 36 -7q27 0 38 13.5t11 46.5z" />
    <glyph glyph-name="Omacron" unicode="&#x14c;" horiz-adv-x="341" 
d="M170 46q55 0 55 66v475q0 66 -55 66t-55 -66v-475q0 -66 55 -66zM170 710q65 0 91.5 -32t26.5 -91v-475q0 -59 -26.5 -90.5t-91.5 -31.5t-91.5 31.5t-26.5 90.5v475q0 59 26.5 91t91.5 32zM85 750v46h170v-46h-170z" />
    <glyph glyph-name="omacron" unicode="&#x14d;" horiz-adv-x="318" 
d="M159 510q61 0 86 -30t25 -87v-287q0 -57 -24.5 -86.5t-86.5 -29.5t-87 29.5t-25 86.5v287q0 57 25.5 87t86.5 30zM159 42q51 0 51 64v287q0 65 -51 65q-52 0 -52 -65v-287q0 -64 52 -64zM73 593v46h170v-46h-170z" />
    <glyph glyph-name="Obreve" unicode="&#x14e;" horiz-adv-x="341" 
d="M170 46q55 0 55 66v475q0 66 -55 66t-55 -66v-475q0 -66 55 -66zM170 710q65 0 91.5 -32t26.5 -91v-475q0 -59 -26.5 -90.5t-91.5 -31.5t-91.5 31.5t-26.5 90.5v475q0 59 26.5 91t91.5 32zM210 836h39q0 -101 -79 -101q-78 0 -78 101h38q0 -55 40 -55t40 55z" />
    <glyph glyph-name="obreve" unicode="&#x14f;" horiz-adv-x="318" 
d="M159 510q61 0 86 -30t25 -87v-287q0 -57 -24.5 -86.5t-86.5 -29.5t-87 29.5t-25 86.5v287q0 57 25.5 87t86.5 30zM159 42q51 0 51 64v287q0 65 -51 65q-52 0 -52 -65v-287q0 -64 52 -64zM198 658h39q0 -101 -79 -101q-78 0 -78 101h38q0 -55 40 -55t40 55z" />
    <glyph glyph-name="Ohungarumlaut" unicode="&#x150;" horiz-adv-x="341" 
d="M170 46q55 0 55 66v475q0 66 -55 66t-55 -66v-475q0 -66 55 -66zM170 710q65 0 91.5 -32t26.5 -91v-475q0 -59 -26.5 -90.5t-91.5 -31.5t-91.5 31.5t-26.5 90.5v475q0 59 26.5 91t91.5 32zM121 877h59l-39 -127h-43zM226 877h59l-49 -127h-43z" />
    <glyph glyph-name="ohungarumlaut" unicode="&#x151;" horiz-adv-x="318" 
d="M159 510q61 0 86 -30t25 -87v-287q0 -57 -24.5 -86.5t-86.5 -29.5t-87 29.5t-25 86.5v287q0 57 25.5 87t86.5 30zM159 42q51 0 51 64v287q0 65 -51 65q-52 0 -52 -65v-287q0 -64 52 -64zM110 677h59l-39 -127h-43zM215 677h59l-49 -127h-43z" />
    <glyph glyph-name="OE" unicode="&#x152;" horiz-adv-x="462" 
d="M283 324v-264h136v-60h-200q-25 -10 -54 -10q-65 0 -91.5 31.5t-26.5 90.5v475q0 59 26.5 91t91.5 32q24 0 54 -10h200v-61h-136v-257h117v-58h-117zM165 46q55 0 55 58v483q0 66 -55 66t-55 -66v-475q0 -66 55 -66z" />
    <glyph glyph-name="oe" unicode="&#x153;" horiz-adv-x="475" 
d="M370 172h59v-66q0 -57 -24 -86.5t-86 -29.5q-55 0 -81 32q-26 -32 -82 -32q-62 0 -87 29.5t-25 86.5v287q0 57 25.5 87t86.5 30q55 0 81 -33q25 33 82 33q61 0 85.5 -30t24.5 -87v-145h-162v-142q0 -64 52 -64q51 0 51 64v66zM156 458q-31 0 -41.5 -20.5t-10.5 -64.5
v-267q0 -64 52 -64q31 0 41 20t10 65v266q0 65 -51 65zM370 295v92q0 36 -11 53.5t-40 17.5q-52 0 -52 -65v-98h103z" />
    <glyph glyph-name="Racute" unicode="&#x154;" horiz-adv-x="348" 
d="M62 0v700h115q68 0 93.5 -31t25.5 -90v-158q0 -99 -79 -115l113 -306h-70l-103 302h-32v-302h-63zM125 360h48q34 0 47 15t13 46v158q0 60 -60 60h-48v-279zM177 877h59l-54 -127h-43z" />
    <glyph glyph-name="racute" unicode="&#x155;" horiz-adv-x="212" 
d="M189 513v-62q-77 7 -77 -79v-372h-60v500h42l15 -31q25 44 80 44zM126 677h59l-54 -127h-43z" />
    <glyph glyph-name="Rcommaaccent" unicode="&#x156;" horiz-adv-x="348" 
d="M62 0v700h115q68 0 93.5 -31t25.5 -90v-158q0 -99 -79 -115l113 -306h-70l-103 302h-32v-302h-63zM125 360h48q34 0 47 15t13 46v158q0 60 -60 60h-48v-279zM139 -48h63l-26 -122h-37v122z" />
    <glyph glyph-name="rcommaaccent" unicode="&#x157;" horiz-adv-x="212" 
d="M189 513v-62q-77 7 -77 -79v-372h-60v500h42l15 -31q25 44 80 44zM52 -48h63l-26 -122h-37v122z" />
    <glyph glyph-name="Rcaron" unicode="&#x158;" horiz-adv-x="348" 
d="M62 0v700h115q68 0 93.5 -31t25.5 -90v-158q0 -99 -79 -115l113 -306h-70l-103 302h-32v-302h-63zM125 360h48q34 0 47 15t13 46v158q0 60 -60 60h-48v-279zM189 750h-52l-55 127h44l37 -74l38 74h44z" />
    <glyph glyph-name="rcaron" unicode="&#x159;" horiz-adv-x="212" 
d="M189 513v-62q-77 7 -77 -79v-372h-60v500h42l15 -31q25 44 80 44zM146 550h-52l-55 127h44l37 -74l38 74h44z" />
    <glyph glyph-name="Sacute" unicode="&#x15a;" horiz-adv-x="329" 
d="M218 113v85q0 48 -12.5 81t-31.5 49t-41.5 33.5t-41.5 34t-31.5 50t-12.5 81.5v60q0 60 25.5 91.5t91.5 31.5t91.5 -31.5t25.5 -91.5v-77h-63v77q0 66 -54 66q-31 0 -42.5 -17t-11.5 -49v-59q0 -40 12.5 -68t31.5 -41.5t41.5 -31.5t41.5 -36.5t31.5 -57.5t12.5 -94v-86
q0 -60 -25.5 -91.5t-91.5 -31.5t-91.5 31.5t-25.5 91.5v87h63v-87q0 -67 54 -67q31 0 42.5 17t11.5 50zM180 877h59l-54 -127h-43z" />
    <glyph glyph-name="sacute" unicode="&#x15b;" horiz-adv-x="301" 
d="M42 376v19q0 56 24.5 85.5t83.5 29.5q60 0 84 -29.5t24 -85.5v-57h-59v57q0 34 -11.5 48.5t-37.5 14.5t-37.5 -15t-11.5 -48v-19q0 -29 11.5 -50t29 -32t38 -24.5t38 -26.5t29 -38.5t11.5 -60.5v-40q0 -57 -24 -85.5t-84 -28.5t-84 28.5t-24 85.5v68h59v-68
q0 -34 11.5 -48t37.5 -14t37.5 14.5t11.5 47.5v38q0 28 -11.5 48.5t-29 31.5t-38 24.5t-38 27t-29 40t-11.5 62.5zM168 677h59l-54 -127h-43z" />
    <glyph glyph-name="Scircumflex" unicode="&#x15c;" horiz-adv-x="329" 
d="M218 113v85q0 48 -12.5 81t-31.5 49t-41.5 33.5t-41.5 34t-31.5 50t-12.5 81.5v60q0 60 25.5 91.5t91.5 31.5t91.5 -31.5t25.5 -91.5v-77h-63v77q0 66 -54 66q-31 0 -42.5 -17t-11.5 -49v-59q0 -40 12.5 -68t31.5 -41.5t41.5 -31.5t41.5 -36.5t31.5 -57.5t12.5 -94v-86
q0 -60 -25.5 -91.5t-91.5 -31.5t-91.5 31.5t-25.5 91.5v87h63v-87q0 -67 54 -67q31 0 42.5 17t11.5 50zM138 877h52l56 -127h-44l-38 74l-37 -74h-44z" />
    <glyph glyph-name="scircumflex" unicode="&#x15d;" horiz-adv-x="301" 
d="M42 376v19q0 56 24.5 85.5t83.5 29.5q60 0 84 -29.5t24 -85.5v-57h-59v57q0 34 -11.5 48.5t-37.5 14.5t-37.5 -15t-11.5 -48v-19q0 -29 11.5 -50t29 -32t38 -24.5t38 -26.5t29 -38.5t11.5 -60.5v-40q0 -57 -24 -85.5t-84 -28.5t-84 28.5t-24 85.5v68h59v-68
q0 -34 11.5 -48t37.5 -14t37.5 14.5t11.5 47.5v38q0 28 -11.5 48.5t-29 31.5t-38 24.5t-38 27t-29 40t-11.5 62.5zM123 677h52l56 -127h-44l-38 74l-37 -74h-44z" />
    <glyph glyph-name="Scedilla" unicode="&#x15e;" horiz-adv-x="329" 
d="M129 -71l16 62q-55 4 -76.5 35t-21.5 87v87h63v-87q0 -67 54 -67q31 0 42.5 17t11.5 50v85q0 48 -12.5 81t-31.5 49t-41.5 33.5t-41.5 34t-31.5 50t-12.5 81.5v60q0 60 25.5 91.5t91.5 31.5t91.5 -31.5t25.5 -91.5v-77h-63v77q0 66 -54 66q-31 0 -42.5 -17t-11.5 -49v-59
q0 -40 12.5 -68t31.5 -41.5t41.5 -31.5t41.5 -36.5t31.5 -57.5t12.5 -94v-86q0 -56 -22.5 -87t-79.5 -35l-7 -31q64 -9 64 -64q0 -66 -88 -66h-46l10 38h33q41 0 41 30q0 31 -43 31h-14z" />
    <glyph glyph-name="scedilla" unicode="&#x15f;" horiz-adv-x="301" 
d="M110 -71l16 62q-46 6 -65 34t-19 79v68h59v-68q0 -34 11.5 -48t37.5 -14t37.5 14.5t11.5 47.5v38q0 28 -11.5 48.5t-29 31.5t-38 24.5t-38 27t-29 40t-11.5 62.5v19q0 56 24.5 85.5t83.5 29.5q60 0 84 -29.5t24 -85.5v-57h-59v57q0 34 -11.5 48.5t-37.5 14.5t-37.5 -15
t-11.5 -48v-19q0 -29 11.5 -50t29 -32t38 -24.5t38 -26.5t29 -38.5t11.5 -60.5v-40q0 -54 -21.5 -82.5t-76.5 -31.5l-7 -30q64 -9 64 -64q0 -66 -88 -66h-46l10 38h33q41 0 41 30q0 31 -43 31h-14z" />
    <glyph glyph-name="Scaron" unicode="&#x160;" horiz-adv-x="329" 
d="M218 113v85q0 48 -12.5 81t-31.5 49t-41.5 33.5t-41.5 34t-31.5 50t-12.5 81.5v60q0 60 25.5 91.5t91.5 31.5t91.5 -31.5t25.5 -91.5v-77h-63v77q0 66 -54 66q-31 0 -42.5 -17t-11.5 -49v-59q0 -40 12.5 -68t31.5 -41.5t41.5 -31.5t41.5 -36.5t31.5 -57.5t12.5 -94v-86
q0 -60 -25.5 -91.5t-91.5 -31.5t-91.5 31.5t-25.5 91.5v87h63v-87q0 -67 54 -67q31 0 42.5 17t11.5 50zM190 750h-52l-55 127h44l37 -74l38 74h44z" />
    <glyph glyph-name="scaron" unicode="&#x161;" horiz-adv-x="301" 
d="M42 376v19q0 56 24.5 85.5t83.5 29.5q60 0 84 -29.5t24 -85.5v-57h-59v57q0 34 -11.5 48.5t-37.5 14.5t-37.5 -15t-11.5 -48v-19q0 -29 11.5 -50t29 -32t38 -24.5t38 -26.5t29 -38.5t11.5 -60.5v-40q0 -57 -24 -85.5t-84 -28.5t-84 28.5t-24 85.5v68h59v-68
q0 -34 11.5 -48t37.5 -14t37.5 14.5t11.5 47.5v38q0 28 -11.5 48.5t-29 31.5t-38 24.5t-38 27t-29 40t-11.5 62.5zM175 550h-52l-55 127h44l37 -74l38 74h44z" />
    <glyph glyph-name="Tcommaaccent" unicode="&#x162;" horiz-adv-x="275" 
d="M169 639v-639h-63v639h-84v61h230v-61h-83zM105 -48h63l-26 -122h-37v122z" />
    <glyph glyph-name="tcommaaccent" unicode="&#x163;" horiz-adv-x="242" 
d="M22 447v53h49v131q10 3 29.5 8t30.5 8v-147h79v-53h-79v-346q0 -31 10.5 -45t35.5 -14q19 0 37 7v-51q-18 -8 -40 -8q-58 0 -80.5 27t-22.5 84v346h-49zM104 -48h63l-26 -122h-37v122z" />
    <glyph glyph-name="Tcaron" unicode="&#x164;" horiz-adv-x="275" 
d="M169 639v-639h-63v639h-84v61h230v-61h-83zM163 750h-52l-55 127h44l37 -74l38 74h44z" />
    <glyph glyph-name="tcaron" unicode="&#x165;" horiz-adv-x="242" 
d="M22 447v53h49v131q10 3 29.5 8t30.5 8v-147h79v-53h-79v-346q0 -31 10.5 -45t35.5 -14q19 0 37 7v-51q-18 -8 -40 -8q-58 0 -80.5 27t-22.5 84v346h-49zM176 710h54l-27 -160h-27v160z" />
    <glyph glyph-name="Tbar" unicode="&#x166;" horiz-adv-x="275" 
d="M50 331v45h56v263h-84v61h230v-61h-83v-263h56v-45h-56v-331h-63v331h-56z" />
    <glyph glyph-name="tbar" unicode="&#x167;" horiz-adv-x="242" 
d="M29 234v46h39v166h-49v54h49v131l60 16v-147h79v-54h-79v-166h58v-46h-58v-133q0 -33 9.5 -46t36.5 -13q19 0 37 7v-52q-16 -7 -40 -7q-59 0 -81 26.5t-22 84.5v133h-39z" />
    <glyph glyph-name="Utilde" unicode="&#x168;" horiz-adv-x="350" 
d="M120 700v-587q0 -67 55 -67q54 0 54 67v587h63v-587q0 -123 -117 -123q-66 0 -92 32t-26 91v587h63zM223 750q-27 0 -52 21t-41 21q-28 0 -28 -32h-38q0 42 14 61.5t49 19.5q27 0 52 -21t41 -21q28 0 28 32h38q0 -42 -14.5 -61.5t-48.5 -19.5z" />
    <glyph glyph-name="utilde" unicode="&#x169;" 
d="M215 500h60v-500h-35l-16 32q-22 -42 -75 -42q-52 0 -74.5 28t-22.5 87v395h60v-395q0 -63 51 -63q52 0 52 63v395zM211 560q-27 0 -52 21t-41 21q-28 0 -28 -32h-38q0 42 14 61.5t49 19.5q27 0 52 -21t41 -21q28 0 28 32h38q0 -42 -14.5 -61.5t-48.5 -19.5z" />
    <glyph glyph-name="Umacron" unicode="&#x16a;" horiz-adv-x="350" 
d="M120 700v-587q0 -67 55 -67q54 0 54 67v587h63v-587q0 -123 -117 -123q-66 0 -92 32t-26 91v587h63zM90 750v46h170v-46h-170z" />
    <glyph glyph-name="umacron" unicode="&#x16b;" 
d="M215 500h60v-500h-35l-16 32q-22 -42 -75 -42q-52 0 -74.5 28t-22.5 87v395h60v-395q0 -63 51 -63q52 0 52 63v395zM78 593v46h170v-46h-170z" />
    <glyph glyph-name="Ubreve" unicode="&#x16c;" horiz-adv-x="350" 
d="M120 700v-587q0 -67 55 -67q54 0 54 67v587h63v-587q0 -123 -117 -123q-66 0 -92 32t-26 91v587h63zM214 836h39q0 -101 -79 -101q-78 0 -78 101h38q0 -55 40 -55t40 55z" />
    <glyph glyph-name="ubreve" unicode="&#x16d;" 
d="M215 500h60v-500h-35l-16 32q-22 -42 -75 -42q-52 0 -74.5 28t-22.5 87v395h60v-395q0 -63 51 -63q52 0 52 63v395zM203 658h39q0 -101 -79 -101q-78 0 -78 101h38q0 -55 40 -55t40 55z" />
    <glyph glyph-name="Uring" unicode="&#x16e;" horiz-adv-x="350" 
d="M120 700v-587q0 -67 55 -67q54 0 54 67v587h63v-587q0 -123 -117 -123q-66 0 -92 32t-26 91v587h63zM243 808q0 -75 -68 -75t-68 75q0 77 68 77t68 -77zM204 808q0 43 -29 43t-29 -43q0 -41 29 -41t29 41z" />
    <glyph glyph-name="uring" unicode="&#x16f;" 
d="M215 500h60v-500h-35l-16 32q-22 -42 -75 -42q-52 0 -74.5 28t-22.5 87v395h60v-395q0 -63 51 -63q52 0 52 63v395zM231 622q0 -75 -68 -75t-68 75q0 77 68 77t68 -77zM192 622q0 43 -29 43t-29 -43q0 -41 29 -41t29 41z" />
    <glyph glyph-name="Uhungarumlaut" unicode="&#x170;" horiz-adv-x="350" 
d="M120 700v-587q0 -67 55 -67q54 0 54 67v587h63v-587q0 -123 -117 -123q-66 0 -92 32t-26 91v587h63zM127 877h59l-39 -127h-43zM232 877h59l-49 -127h-43z" />
    <glyph glyph-name="uhungarumlaut" unicode="&#x171;" 
d="M215 500h60v-500h-35l-16 32q-22 -42 -75 -42q-52 0 -74.5 28t-22.5 87v395h60v-395q0 -63 51 -63q52 0 52 63v395zM115 677h59l-39 -127h-43zM220 677h59l-49 -127h-43z" />
    <glyph glyph-name="Uogonek" unicode="&#x172;" horiz-adv-x="350" 
d="M218 -115h12v-55h-12q-84 0 -84 68q0 54 45 92h-4q-66 0 -92 32t-26 91v587h63v-587q0 -67 55 -67q54 0 54 67v587h63v-587q0 -94 -65 -115q-44 -36 -44 -81q0 -32 35 -32z" />
    <glyph glyph-name="uogonek" unicode="&#x173;" 
d="M263 -115h12v-55h-12q-84 0 -84 68q0 60 60 103l-15 31q-22 -42 -75 -42q-52 0 -74.5 28t-22.5 87v395h60v-395q0 -63 51 -63q52 0 52 63v395h60v-500q-47 -36 -47 -83q0 -32 35 -32z" />
    <glyph glyph-name="Wcircumflex" unicode="&#x174;" horiz-adv-x="536" 
d="M341 0l-74 574l-73 -574h-73l-89 700h64l62 -579l76 579h66l76 -579l62 579h64l-89 -700h-72zM241 877h52l56 -127h-44l-38 74l-37 -74h-44z" />
    <glyph glyph-name="wcircumflex" unicode="&#x175;" horiz-adv-x="469" 
d="M295 0l-60 400l-61 -400h-68l-80 500h62l54 -413q20 137 62 413h62q23 -156 62 -413l54 413h61l-79 -500h-69zM207 677h52l56 -127h-44l-38 74l-37 -74h-44z" />
    <glyph glyph-name="Ycircumflex" unicode="&#x176;" horiz-adv-x="302" 
d="M182 0h-63v291l-97 409h66l62 -318l63 318h66l-97 -409v-291zM124 877h52l56 -127h-44l-38 74l-37 -74h-44z" />
    <glyph glyph-name="ycircumflex" unicode="&#x177;" horiz-adv-x="301" 
d="M56 -170q-24 0 -39 5v54q17 -7 39 -7q44 0 56 58l11 59l-98 501h62l65 -391l64 391h62l-108 -562q-12 -59 -36.5 -83.5t-77.5 -24.5zM123 677h52l56 -127h-44l-38 74l-37 -74h-44z" />
    <glyph glyph-name="Ydieresis" unicode="&#x178;" horiz-adv-x="302" 
d="M182 0h-63v291l-97 409h66l62 -318l63 318h66l-97 -409v-291zM66 824h61v-74h-61v74zM174 824h61v-74h-61v74z" />
    <glyph glyph-name="Zacute" unicode="&#x179;" horiz-adv-x="277" 
d="M244 0h-212v40l141 599h-141v61h209v-40l-141 -600h144v-60zM149 877h59l-54 -127h-43z" />
    <glyph glyph-name="zacute" unicode="&#x17a;" horiz-adv-x="262" 
d="M229 0h-197v37l128 410h-123v53h187v-38l-127 -409h132v-53zM147 677h59l-54 -127h-43z" />
    <glyph glyph-name="Zdotaccent" unicode="&#x17b;" horiz-adv-x="277" 
d="M244 0h-212v40l141 599h-141v61h209v-40l-141 -600h144v-60zM108 824h61v-74h-61v74z" />
    <glyph glyph-name="zdotaccent" unicode="&#x17c;" horiz-adv-x="262" 
d="M229 0h-197v37l128 410h-123v53h187v-38l-127 -409h132v-53zM99 659h61v-74h-61v74z" />
    <glyph glyph-name="Zcaron" unicode="&#x17d;" horiz-adv-x="277" 
d="M244 0h-212v40l141 599h-141v61h209v-40l-141 -600h144v-60zM164 750h-52l-55 127h44l37 -74l38 74h44z" />
    <glyph glyph-name="zcaron" unicode="&#x17e;" horiz-adv-x="262" 
d="M229 0h-197v37l128 410h-123v53h187v-38l-127 -409h132v-53zM156 550h-52l-55 127h44l37 -74l38 74h44z" />
    <glyph glyph-name="florin" unicode="&#x192;" horiz-adv-x="229" 
d="M68 -21v470h-45v51h45v101q0 63 22.5 91t84.5 28q23 0 39 -6v-53q-14 7 -38 7q-27 0 -37.5 -14t-10.5 -46v-108h73v-51h-73v-461q0 -64 -22 -92t-84 -28q-22 0 -38 6v52q15 -6 36 -6q27 0 37.5 13.5t10.5 45.5z" />
    <glyph glyph-name="Scommaaccent" unicode="&#x218;" horiz-adv-x="329" 
d="M218 113v85q0 48 -12.5 81t-31.5 49t-41.5 33.5t-41.5 34t-31.5 50t-12.5 81.5v60q0 60 25.5 91.5t91.5 31.5t91.5 -31.5t25.5 -91.5v-77h-63v77q0 66 -54 66q-31 0 -42.5 -17t-11.5 -49v-59q0 -40 12.5 -68t31.5 -41.5t41.5 -31.5t41.5 -36.5t31.5 -57.5t12.5 -94v-86
q0 -60 -25.5 -91.5t-91.5 -31.5t-91.5 31.5t-25.5 91.5v87h63v-87q0 -67 54 -67q31 0 42.5 17t11.5 50zM128 -48h63l-26 -122h-37v122z" />
    <glyph glyph-name="scommaaccent" unicode="&#x219;" horiz-adv-x="301" 
d="M42 376v19q0 56 24.5 85.5t83.5 29.5q60 0 84 -29.5t24 -85.5v-57h-59v57q0 34 -11.5 48.5t-37.5 14.5t-37.5 -15t-11.5 -48v-19q0 -29 11.5 -50t29 -32t38 -24.5t38 -26.5t29 -38.5t11.5 -60.5v-40q0 -57 -24 -85.5t-84 -28.5t-84 28.5t-24 85.5v68h59v-68
q0 -34 11.5 -48t37.5 -14t37.5 14.5t11.5 47.5v38q0 28 -11.5 48.5t-29 31.5t-38 24.5t-38 27t-29 40t-11.5 62.5zM118 -48h63l-26 -122h-37v122z" />
    <glyph glyph-name="circumflex" unicode="&#x2c6;" horiz-adv-x="242" 
d="M94 677h52l56 -127h-44l-38 74l-37 -74h-44z" />
    <glyph glyph-name="caron" unicode="&#x2c7;" horiz-adv-x="242" 
d="M146 550h-52l-55 127h44l37 -74l38 74h44z" />
    <glyph glyph-name="breve" unicode="&#x2d8;" horiz-adv-x="236" 
d="M157 658h39q0 -101 -79 -101q-78 0 -78 101h38q0 -55 40 -55t40 55z" />
    <glyph glyph-name="dotaccent" unicode="&#x2d9;" horiz-adv-x="144" 
d="M40 659h61v-74h-61v74z" />
    <glyph glyph-name="ring" unicode="&#x2da;" horiz-adv-x="215" 
d="M175 622q0 -75 -68 -75t-68 75q0 77 68 77t68 -77zM136 622q0 43 -29 43t-29 -43q0 -41 29 -41t29 41z" />
    <glyph glyph-name="ogonek" unicode="&#x2db;" horiz-adv-x="181" 
d="M126 -115h12v-55h-12q-84 0 -84 68q0 60 58 102h38q-47 -36 -47 -83q0 -32 35 -32z" />
    <glyph glyph-name="tilde" unicode="&#x2dc;" horiz-adv-x="301" 
d="M198 560q-27 0 -52 21t-41 21q-28 0 -28 -32h-38q0 42 14 61.5t49 19.5q27 0 52 -21t41 -21q28 0 28 32h38q0 -42 -14.5 -61.5t-48.5 -19.5z" />
    <glyph glyph-name="hungarumlaut" unicode="&#x2dd;" horiz-adv-x="267" 
d="M62 677h59l-39 -127h-43zM167 677h59l-49 -127h-43z" />
    <glyph glyph-name="pi" unicode="&#x3c0;" horiz-adv-x="342" 
d="M317 500v-52h-42v-448h-60v448h-89v-448h-60v448h-42v52h293z" />
    <glyph glyph-name="Bdotaccent" unicode="&#x1e02;" horiz-adv-x="353" 
d="M62 0v700h114q68 0 93.5 -26t25.5 -83v-147q0 -71 -54 -90q59 -19 59 -92v-146q0 -59 -25 -87.5t-93 -28.5h-120zM125 60h53q33 0 46 14t13 44v146q0 60 -59 60h-53v-264zM175 639h-50v-257h49q59 0 59 60v140q0 30 -13 43.5t-45 13.5zM146 824h61v-74h-61v74z" />
    <glyph glyph-name="bdotaccent" unicode="&#x1e03;" horiz-adv-x="323" 
d="M88 0h-36v710h60v-236q22 36 68 36q51 0 73 -28t22 -88v-289q0 -59 -22.5 -87t-74.5 -28t-74 41zM112 392v-286q0 -64 53 -64q50 0 50 64v288q0 64 -50 64q-53 0 -53 -66zM154 659h61v-74h-61v74z" />
    <glyph glyph-name="Ddotaccent" unicode="&#x1e0a;" horiz-adv-x="358" 
d="M125 60h52q34 0 47 15t13 46v458q0 30 -13 45t-47 15h-52v-579zM62 0v700h116q68 0 95 -31t27 -90v-458q0 -59 -26 -90t-94 -31h-118zM148 824h61v-74h-61v74z" />
    <glyph glyph-name="ddotaccent" unicode="&#x1e0b;" 
d="M275 0h-36l-16 31q-22 -41 -74 -41t-74.5 28t-22.5 87v289q0 60 22 88t73 28q46 0 68 -36v236h60v-710zM215 106v286q0 66 -53 66q-50 0 -50 -64v-288q0 -64 50 -64q53 0 53 64zM104 659h61v-74h-61v74z" />
    <glyph glyph-name="Fdotaccent" unicode="&#x1e1e;" horiz-adv-x="288" 
d="M125 0h-63v700h193v-61h-130v-257h112v-58h-112v-324zM113 824h61v-74h-61v74z" />
    <glyph glyph-name="fdotaccent" unicode="&#x1e1f;" horiz-adv-x="231" 
d="M174 720q22 0 39 -6v-53q-14 7 -37 7q-27 0 -37.5 -13.5t-10.5 -46.5v-108h73v-53h-73v-447h-60v447h-46v53h46v108q0 58 23 85t83 27zM104 859h61v-74h-61v74z" />
    <glyph glyph-name="Mdotaccent" unicode="&#x1e40;" horiz-adv-x="480" 
d="M62 700h80l97 -595l98 595h80v-700h-60v239q0 31 1.5 95.5t3.5 143.5t3 110l-95 -588h-61l-95 588q1 -32 3 -110.5t3.5 -142.5t1.5 -96v-239h-60v700zM209 824h61v-74h-61v74z" />
    <glyph glyph-name="mdotaccent" unicode="&#x1e41;" horiz-adv-x="487" 
d="M214 0v395q0 63 -49 63q-53 0 -53 -63v-395h-60v500h36l16 -32q25 42 76 42q58 0 79 -42q26 42 83 42q50 0 72 -28t22 -84v-398h-60v395q0 63 -49 63q-53 0 -53 -62v-396h-60zM212 659h61v-74h-61v74z" />
    <glyph glyph-name="Pdotaccent" unicode="&#x1e56;" horiz-adv-x="334" 
d="M62 0v700h114q68 0 94 -31t26 -90v-158q0 -119 -122 -119h-49v-302h-63zM125 360h48q34 0 47 15t13 46v158q0 60 -60 60h-48v-279zM136 824h61v-74h-61v74z" />
    <glyph glyph-name="pdotaccent" unicode="&#x1e57;" 
d="M52 500h36l16 -32q22 42 74 42t74.5 -28.5t22.5 -86.5v-289q0 -60 -22 -88t-73 -28q-46 0 -68 36v-186h-60v660zM112 393v-261q0 -44 10.5 -67t42.5 -23q50 0 50 64v288q0 64 -50 64q-53 0 -53 -65zM129 659h61v-74h-61v74z" />
    <glyph glyph-name="Sdotaccent" unicode="&#x1e60;" horiz-adv-x="329" 
d="M218 113v85q0 48 -12.5 81t-31.5 49t-41.5 33.5t-41.5 34t-31.5 50t-12.5 81.5v60q0 60 25.5 91.5t91.5 31.5t91.5 -31.5t25.5 -91.5v-77h-63v77q0 66 -54 66q-31 0 -42.5 -17t-11.5 -49v-59q0 -40 12.5 -68t31.5 -41.5t41.5 -31.5t41.5 -36.5t31.5 -57.5t12.5 -94v-86
q0 -60 -25.5 -91.5t-91.5 -31.5t-91.5 31.5t-25.5 91.5v87h63v-87q0 -67 54 -67q31 0 42.5 17t11.5 50zM134 824h61v-74h-61v74z" />
    <glyph glyph-name="sdotaccent" unicode="&#x1e61;" horiz-adv-x="301" 
d="M42 376v19q0 56 24.5 85.5t83.5 29.5q60 0 84 -29.5t24 -85.5v-57h-59v57q0 34 -11.5 48.5t-37.5 14.5t-37.5 -15t-11.5 -48v-19q0 -29 11.5 -50t29 -32t38 -24.5t38 -26.5t29 -38.5t11.5 -60.5v-40q0 -57 -24 -85.5t-84 -28.5t-84 28.5t-24 85.5v68h59v-68
q0 -34 11.5 -48t37.5 -14t37.5 14.5t11.5 47.5v38q0 28 -11.5 48.5t-29 31.5t-38 24.5t-38 27t-29 40t-11.5 62.5zM119 659h61v-74h-61v74z" />
    <glyph glyph-name="Tdotaccent" unicode="&#x1e6a;" horiz-adv-x="275" 
d="M169 639v-639h-63v639h-84v61h230v-61h-83zM107 824h61v-74h-61v74z" />
    <glyph glyph-name="tdotaccent" unicode="&#x1e6b;" horiz-adv-x="242" 
d="M22 447v53h49v131q10 3 29.5 8t30.5 8v-147h79v-53h-79v-346q0 -31 10.5 -45t35.5 -14q19 0 37 7v-51q-18 -8 -40 -8q-58 0 -80.5 27t-22.5 84v346h-49zM70 768h61v-74h-61v74z" />
    <glyph glyph-name="Wgrave" unicode="&#x1e80;" horiz-adv-x="536" 
d="M341 0l-74 574l-73 -574h-73l-89 700h64l62 -579l76 579h66l76 -579l62 579h64l-89 -700h-72zM189 877h60l37 -127h-42z" />
    <glyph glyph-name="wgrave" unicode="&#x1e81;" horiz-adv-x="469" 
d="M295 0l-60 400l-61 -400h-68l-80 500h62l54 -413q20 137 62 413h62q23 -156 62 -413l54 413h61l-79 -500h-69zM155 677h60l37 -127h-42z" />
    <glyph glyph-name="Wacute" unicode="&#x1e82;" horiz-adv-x="536" 
d="M341 0l-74 574l-73 -574h-73l-89 700h64l62 -579l76 579h66l76 -579l62 579h64l-89 -700h-72zM280 877h59l-54 -127h-43z" />
    <glyph glyph-name="wacute" unicode="&#x1e83;" horiz-adv-x="469" 
d="M295 0l-60 400l-61 -400h-68l-80 500h62l54 -413q20 137 62 413h62q23 -156 62 -413l54 413h61l-79 -500h-69zM255 677h59l-54 -127h-43z" />
    <glyph glyph-name="Wdieresis" unicode="&#x1e84;" horiz-adv-x="536" 
d="M341 0l-74 574l-73 -574h-73l-89 700h64l62 -579l76 579h66l76 -579l62 579h64l-89 -700h-72zM183 824h61v-74h-61v74zM291 824h61v-74h-61v74z" />
    <glyph glyph-name="wdieresis" unicode="&#x1e85;" horiz-adv-x="469" 
d="M295 0l-60 400l-61 -400h-68l-80 500h62l54 -413q20 137 62 413h62q23 -156 62 -413l54 413h61l-79 -500h-69zM149 659h61v-74h-61v74zM257 659h61v-74h-61v74z" />
    <glyph glyph-name="Ygrave" unicode="&#x1ef2;" horiz-adv-x="302" 
d="M182 0h-63v291l-97 409h66l62 -318l63 318h66l-97 -409v-291zM77 877h60l37 -127h-42z" />
    <glyph glyph-name="ygrave" unicode="&#x1ef3;" horiz-adv-x="301" 
d="M56 -170q-24 0 -39 5v54q17 -7 39 -7q44 0 56 58l11 59l-98 501h62l65 -391l64 391h62l-108 -562q-12 -59 -36.5 -83.5t-77.5 -24.5zM75 677h60l37 -127h-42z" />
    <glyph glyph-name="endash" unicode="&#x2013;" horiz-adv-x="350" 
d="M39 257v46h270v-46h-270z" />
    <glyph glyph-name="emdash" unicode="&#x2014;" horiz-adv-x="510" 
d="M39 263v34h430v-34h-430z" />
    <glyph glyph-name="quoteleft" unicode="&#x2018;" horiz-adv-x="148" 
d="M37 710h71v-203h-36z" />
    <glyph glyph-name="quoteright" unicode="&#x2019;" horiz-adv-x="145" 
d="M39 710h71l-35 -203h-36v203z" />
    <glyph glyph-name="quotesinglbase" unicode="&#x201a;" horiz-adv-x="168" 
d="M49 106h71l-35 -203h-36v203z" />
    <glyph glyph-name="quotedblleft" unicode="&#x201c;" horiz-adv-x="260" 
d="M39 710h71v-203h-36zM149 710h70v-203h-36z" />
    <glyph glyph-name="quotedblright" unicode="&#x201d;" horiz-adv-x="260" 
d="M149 710h70l-34 -203h-36v203zM39 710h71l-35 -203h-36v203z" />
    <glyph glyph-name="quotedblbase" unicode="&#x201e;" horiz-adv-x="276" 
d="M157 106h70l-34 -203h-36v203zM47 106h71l-35 -203h-36v203z" />
    <glyph glyph-name="dagger" unicode="&#x2020;" horiz-adv-x="238" 
d="M39 580v32h62v98h34v-98h62v-32h-62v-232h-34v232h-62z" />
    <glyph glyph-name="daggerdbl" unicode="&#x2021;" horiz-adv-x="238" 
d="M39 445v32h62v104h-62v31h62v98h34v-98h62v-31h-62v-104h62v-32h-62v-97h-34v97h-62z" />
    <glyph glyph-name="bullet" unicode="&#x2022;" horiz-adv-x="250" 
d="M39 283q0 35 25 60t60 25t60 -25t25 -60t-25 -60t-60 -25t-60 25t-25 60z" />
    <glyph glyph-name="ellipsis" unicode="&#x2026;" horiz-adv-x="445" 
d="M49 77h67v-77h-67v77zM188 77h67v-77h-67v77zM327 77h67v-77h-67v77z" />
    <glyph glyph-name="perthousand" unicode="&#x2030;" horiz-adv-x="573" 
d="M130 435q-45 0 -62.5 24.5t-17.5 79.5v67q0 55 17.5 79.5t62.5 24.5t62.5 -24.5t17.5 -79.5v-67q0 -55 -17.5 -79.5t-62.5 -24.5zM320 -10q-45 0 -62 24.5t-17 79.5v67q0 55 17 79.5t62 24.5t63 -31q16 31 63 31q45 0 62 -24.5t17 -79.5v-67q0 -55 -17 -79.5t-62 -24.5
q-47 0 -63 31q-18 -31 -63 -31zM130 671q-22 0 -29.5 -13.5t-7.5 -50.5v-69q0 -37 7.5 -50.5t29.5 -13.5t29.5 13.5t7.5 50.5v69q0 37 -7.5 50.5t-29.5 13.5zM321 226q-22 0 -29.5 -13.5t-7.5 -50.5v-69q0 -37 7.5 -50.5t29.5 -13.5t29.5 13.5t7.5 50.5v69q0 37 -7.5 50.5
t-29.5 13.5zM445 226q-22 0 -29.5 -13.5t-7.5 -50.5v-69q0 -37 7.5 -50.5t29.5 -13.5t29.5 13.5t7.5 50.5v69q0 37 -7.5 50.5t-29.5 13.5zM394 700l-293 -700h-44l293 700h44z" />
    <glyph glyph-name="guilsinglleft" unicode="&#x2039;" horiz-adv-x="246" 
d="M39 250l106 185h61l-105 -185l105 -185h-61z" />
    <glyph glyph-name="guilsinglright" unicode="&#x203a;" horiz-adv-x="246" 
d="M100 435l106 -185l-106 -185h-61l105 185l-105 185h61z" />
    <glyph glyph-name="Euro" unicode="&#x20ac;" horiz-adv-x="374" 
d="M29 427h50v160q0 59 26.5 91t91.5 32q117 0 117 -123v-77h-62v77q0 66 -55 66t-55 -66v-160h111q-1 -7 -4 -19t-4 -18h-103v-72h87q-7 -29 -8 -37h-79v-169q0 -66 55 -66t55 66v88h62v-88q0 -122 -117 -122q-65 0 -91.5 31.5t-26.5 90.5v169h-50v37h50v72h-50v37z" />
    <glyph glyph-name="trademark" unicode="&#x2122;" horiz-adv-x="344" 
d="M101 677v-177h-24v177h-38v23h99v-23h-37zM238 544h-15l-33 100v-144h-24v200h25l39 -116l39 116h25v-200h-23v144z" />
    <glyph glyph-name="onethird" unicode="&#x2153;" horiz-adv-x="237" 
d="M103 135v27h16q20 0 20 23v59q0 28 -21 28t-21 -25v-35h-28v35q0 51 49 51t49 -51v-60q0 -30 -21 -38q22 -10 22 -40v-61q0 -52 -49 -52q-50 0 -50 52v34h28v-25q0 -36 22 -36q21 0 21 27v60q0 27 -21 27h-16zM47 363h142v-27h-142v27zM132 700v-267h26v-27h-80v27h26
v219h-27v19q32 0 32 29h23z" />
    <glyph glyph-name="twothirds" unicode="&#x2154;" horiz-adv-x="237" 
d="M47 363h142v-27h-142v27zM97 442v-9h72v-27h-100v34q0 34 11 60.5t24.5 41t24.5 35.5t11 44v32q0 25 -22 25q-21 0 -21 -25v-36h-29v36q0 51 50 51t50 -51v-31q0 -44 -35.5 -91t-35.5 -89zM103 135v27h16q20 0 20 23v59q0 28 -21 28t-21 -25v-35h-28v35q0 51 49 51
t49 -51v-60q0 -30 -21 -38q22 -10 22 -40v-61q0 -52 -49 -52q-50 0 -50 52v34h28v-25q0 -36 22 -36q21 0 21 27v60q0 27 -21 27h-16z" />
    <glyph glyph-name="oneeighth" unicode="&#x215b;" horiz-adv-x="237" 
d="M47 363h142v-27h-142v27zM118 -4q-51 0 -51 51v63q0 28 23 39q-21 9 -21 38v60q0 51 49 51t49 -51v-60q0 -29 -20 -38q22 -11 22 -39v-63q0 -51 -51 -51zM118 272q-21 0 -21 -27v-58q0 -27 21 -27q19 0 21 20v65q0 27 -21 27zM118 136q-22 0 -22 -28v-58q0 -29 22 -29
q23 0 23 29v58q0 28 -23 28zM132 700v-267h26v-27h-80v27h26v219h-27v19q32 0 32 29h23z" />
    <glyph glyph-name="threeeighths" unicode="&#x215c;" horiz-adv-x="237" 
d="M103 541v27h16q20 0 20 23v59q0 28 -21 28t-21 -25v-35h-28v35q0 51 49 51t49 -51v-60q0 -30 -21 -38q22 -10 22 -40v-61q0 -52 -49 -52q-50 0 -50 52v34h28v-31q0 -30 22 -30q21 0 21 27v60q0 27 -21 27h-16zM47 363h142v-27h-142v27zM118 -4q-51 0 -51 51v63
q0 28 23 39q-21 9 -21 38v60q0 51 49 51t49 -51v-60q0 -29 -20 -38q22 -11 22 -39v-63q0 -51 -51 -51zM118 272q-21 0 -21 -27v-58q0 -27 21 -27q19 0 21 20v65q0 27 -21 27zM118 136q-22 0 -22 -28v-58q0 -29 22 -29q23 0 23 29v58q0 28 -23 28z" />
    <glyph glyph-name="fiveeighths" unicode="&#x215d;" horiz-adv-x="237" 
d="M47 363h142v-27h-142v27zM103 672q0 -8 -2 -47t-2 -48q12 10 26 10q44 0 44 -50v-82q0 -53 -51 -53t-51 53v36h28v-36q0 -28 23 -28q22 0 22 28v82q0 24 -21 24q-17 0 -26 -14h-23l8 153h86v-28h-61zM118 -4q-51 0 -51 51v63q0 28 23 39q-21 9 -21 38v60q0 51 49 51
t49 -51v-60q0 -29 -20 -38q22 -11 22 -39v-63q0 -51 -51 -51zM118 272q-21 0 -21 -27v-58q0 -27 21 -27q19 0 21 20v65q0 27 -21 27zM118 136q-22 0 -22 -28v-58q0 -29 22 -29q23 0 23 29v58q0 28 -23 28z" />
    <glyph glyph-name="seveneighths" unicode="&#x215e;" horiz-adv-x="237" 
d="M47 363h142v-27h-142v27zM130 406h-32q0 148 41 266h-70v28h98v-23q-23 -75 -30 -124.5t-7 -146.5zM118 -4q-51 0 -51 51v63q0 28 23 39q-21 9 -21 38v60q0 51 49 51t49 -51v-60q0 -29 -20 -38q22 -11 22 -39v-63q0 -51 -51 -51zM118 272q-21 0 -21 -27v-58q0 -27 21 -27
q19 0 21 20v65q0 27 -21 27zM118 136q-22 0 -22 -28v-58q0 -29 22 -29q23 0 23 29v58q0 28 -23 28z" />
    <glyph glyph-name="partialdiff" unicode="&#x2202;" horiz-adv-x="336" 
d="M166 354q-54 0 -54 -62v-180q0 -66 55 -66t55 66v194q-8 48 -56 48zM222 380q-1 103 -29 173.5t-93 146.5h70q64 -76 89.5 -151.5t25.5 -186.5v-250q0 -59 -27 -90.5t-91 -31.5t-91 31.5t-27 90.5v180q0 58 23.5 87.5t77.5 29.5q41 0 72 -29z" />
    <glyph glyph-name="minus" unicode="&#x2212;" horiz-adv-x="360" 
d="M49 303h260v-46h-260v46z" />
    <glyph glyph-name="integral" unicode="&#x222b;" horiz-adv-x="230" 
d="M124 608v-607q0 -58 -22.5 -84.5t-83.5 -26.5q-23 0 -39 6v52q15 -6 37 -6q27 0 37.5 13t10.5 46v607q0 58 23 85t84 27q23 0 39 -6v-53q-14 7 -38 7q-27 0 -37.5 -13.5t-10.5 -46.5z" />
    <glyph glyph-name="approxequal" unicode="&#x2248;" horiz-adv-x="360" 
d="M49 325v46q26 26 65 26q31 0 64 -19t66 -19q37 0 65 28v-46q-28 -28 -65 -28q-33 0 -66 19t-64 19q-39 0 -65 -26zM49 173v46q26 26 65 26q31 0 64 -19t66 -19q37 0 65 28v-46q-28 -28 -65 -28q-33 0 -66 19t-64 19q-39 0 -65 -26z" />
    <glyph glyph-name="notequal" unicode="&#x2260;" horiz-adv-x="360" 
d="M309 333h-94l-32 -106h126v-46h-140l-41 -135h-40l40 135h-79v46h93l33 106h-126v46h140q7 23 21 67.5t20 67.5h41l-42 -135h80v-46z" />
    <glyph glyph-name="lessequal" unicode="&#x2264;" horiz-adv-x="268" 
d="M47 136h171v-46h-171v46zM39 338l120 145h57l-120 -145l120 -145h-57z" />
    <glyph glyph-name="greaterequal" unicode="&#x2265;" horiz-adv-x="268" 
d="M49 136h171v-46h-171v46zM108 483l120 -145l-120 -145h-57l120 145l-120 145h57z" />
    <glyph glyph-name="CR" horiz-adv-x="0" 
 />
    <glyph glyph-name="caron.salt" horiz-adv-x="133" 
d="M39 710h54l-27 -160h-27v160z" />
    <glyph glyph-name="commaaccent" horiz-adv-x="143" 
d="M39 -48h63l-26 -122h-37v122z" />
    <glyph glyph-name="acute.case" horiz-adv-x="177" 
d="M77 877h59l-54 -127h-43z" />
    <glyph glyph-name="grave.case" horiz-adv-x="177" 
d="M39 877h60l37 -127h-42z" />
    <glyph glyph-name="circumflex.case" horiz-adv-x="242" 
d="M94 877h52l56 -127h-44l-38 74l-37 -74h-44z" />
    <glyph glyph-name="dieresis.case" horiz-adv-x="249" 
d="M39 824h61v-74h-61v74zM147 824h61v-74h-61v74z" />
    <glyph glyph-name="tilde.case" horiz-adv-x="301" 
d="M198 750q-27 0 -52 21t-41 21q-28 0 -28 -32h-38q0 42 14 61.5t49 19.5q27 0 52 -21t41 -21q28 0 28 32h38q0 -42 -14.5 -61.5t-48.5 -19.5z" />
    <glyph glyph-name="caron.case" horiz-adv-x="242" 
d="M146 750h-52l-55 127h44l37 -74l38 74h44z" />
    <glyph glyph-name="ring.case" horiz-adv-x="215" 
d="M175 808q0 -75 -68 -75t-68 75q0 77 68 77t68 -77zM136 808q0 43 -29 43t-29 -43q0 -41 29 -41t29 41z" />
    <glyph glyph-name="breve.case" horiz-adv-x="236" 
d="M157 836h39q0 -101 -79 -101q-78 0 -78 101h38q0 -55 40 -55t40 55z" />
    <glyph glyph-name="macron.case" horiz-adv-x="250" 
d="M39 750v46h170v-46h-170z" />
    <glyph glyph-name="dotaccent.case" horiz-adv-x="144" 
d="M40 824h61v-74h-61v74z" />
    <glyph glyph-name="hungarumlaut.case" horiz-adv-x="267" 
d="M62 877h59l-39 -127h-43zM167 877h59l-49 -127h-43z" />
    <glyph glyph-name="one.tnum" horiz-adv-x="350" 
d="M205 700v-640h61v-60h-185v60h61v530h-63v43q75 0 75 67h51z" />
    <glyph glyph-name="two.tnum" horiz-adv-x="350" 
d="M119 103v-43h172v-60h-235v100q0 66 17.5 116.5t42 82.5t49.5 61t42.5 67.5t17.5 86.5v76q0 63 -53 63t-53 -63v-80h-63v80q0 57 26 88.5t90 31.5t90 -31.5t26 -88.5v-75q0 -57 -17.5 -101t-42.5 -74t-49.5 -60t-42 -75t-17.5 -102z" />
    <glyph glyph-name="three.tnum" horiz-adv-x="350" 
d="M138 324v58h34q51 0 51 59v150q0 25 -13 43.5t-39 18.5q-51 0 -51 -62v-81h-61v81q0 57 25 88t87 31q63 0 88.5 -31t25.5 -88v-144q0 -72 -53 -93q57 -20 57 -93v-149q0 -59 -26 -90.5t-91 -31.5t-90 31.5t-25 90.5v88h62v-88q0 -27 13 -46.5t40 -19.5q54 0 54 66v151
q0 26 -13.5 43.5t-40.5 17.5h-34z" />
    <glyph glyph-name="four.tnum" horiz-adv-x="350" 
d="M198 0v154h-162v65l141 481h84v-488h45v-58h-45v-154h-63zM88 212h110v133v272z" />
    <glyph glyph-name="five.tnum" horiz-adv-x="350" 
d="M178 369q-40 0 -63 -35h-51l18 366h201v-61h-145l-11 -241q30 25 66 25q54 0 77 -27.5t23 -87.5v-196q0 -59 -26.5 -90.5t-91.5 -31.5t-91.5 31.5t-26.5 90.5v88h63v-88q0 -66 55 -66t55 66v196q0 61 -52 61z" />
    <glyph glyph-name="six.tnum" horiz-adv-x="350" 
d="M179 653q-55 0 -55 -66v-209q33 31 72 31q54 0 77.5 -29.5t23.5 -87.5v-180q0 -59 -27 -90.5t-91 -31.5t-91 31.5t-27 90.5v475q0 123 118 123t118 -123v-77h-63v77q0 66 -55 66zM180 354q-37 0 -56 -32v-210q0 -66 55 -66t55 66v180q0 62 -54 62z" />
    <glyph glyph-name="seven.tnum" horiz-adv-x="350" 
d="M190 0h-69q0 185 23.5 333.5t80.5 305.5h-179v61h239v-50q-58 -185 -76.5 -305t-18.5 -345z" />
    <glyph glyph-name="eight.tnum" horiz-adv-x="350" 
d="M179 710q63 0 88.5 -31t25.5 -88v-144q0 -72 -54 -93q58 -21 58 -103v-139q0 -59 -26.5 -90.5t-91.5 -31.5t-91.5 31.5t-26.5 90.5v139q0 82 58 103q-53 21 -53 93v144q0 57 25.5 88t87.5 31zM179 46q32 0 43.5 19t11.5 54v137q0 34 -11 52.5t-44 18.5q-32 0 -43.5 -18.5
t-11.5 -52.5v-137q0 -35 11.5 -54t43.5 -19zM179 653q-51 0 -51 -68v-139q0 -32 10.5 -49t40.5 -17t41 17t11 49v139q0 68 -52 68z" />
    <glyph glyph-name="nine.tnum" horiz-adv-x="350" 
d="M175 47q55 0 55 66v219q-33 -31 -72 -31q-54 0 -77.5 29.5t-23.5 87.5v170q0 59 27 90.5t91 31.5t91 -31.5t27 -90.5v-475q0 -123 -118 -123t-118 123v87h63v-87q0 -66 55 -66zM174 356q37 0 56 32v200q0 66 -55 66t-55 -66v-170q0 -62 54 -62z" />
    <glyph glyph-name="zero.tnum" horiz-adv-x="350" 
d="M175 46q55 0 55 66v475q0 66 -55 66t-55 -66v-475q0 -66 55 -66zM175 710q65 0 91.5 -32t26.5 -91v-475q0 -59 -26.5 -90.5t-91.5 -31.5t-91.5 31.5t-26.5 90.5v475q0 59 26.5 91t91.5 32z" />
    <glyph glyph-name="a.smcp" horiz-adv-x="303" 
d="M22 0l92 595h75l92 -595h-62l-18 131h-99l-18 -131h-62zM195 185l-44 331l-43 -331h87z" />
    <glyph glyph-name="b.smcp" horiz-adv-x="344" 
d="M62 0v595h110q65 0 89.5 -24.5t24.5 -74.5v-115q0 -64 -52 -80q57 -16 57 -82v-114q0 -51 -24 -78t-89 -27h-116zM123 57h51q32 0 44 12t12 37v116q0 51 -56 51h-51v-216zM171 537h-48v-210h47q57 0 57 51v111q0 25 -12.5 36.5t-43.5 11.5z" />
    <glyph glyph-name="c.smcp" horiz-adv-x="320" 
d="M219 103v67h58v-67q0 -112 -112 -112q-113 0 -113 112v388q0 112 113 112q112 0 112 -112v-58h-58v58q0 25 -13.5 41.5t-40.5 16.5q-53 0 -53 -58v-388q0 -25 13 -41.5t40 -16.5q54 0 54 58z" />
    <glyph glyph-name="d.smcp" horiz-adv-x="349" 
d="M123 57h50q57 0 57 55v371q0 54 -57 54h-50v-480zM62 0v595h112q117 0 117 -112v-371q0 -112 -115 -112h-114z" />
    <glyph glyph-name="e.smcp" horiz-adv-x="296" 
d="M123 273v-216h130v-57h-191v595h191v-58h-130v-210h112v-54h-112z" />
    <glyph glyph-name="f.smcp" horiz-adv-x="281" 
d="M123 0h-61v595h186v-58h-125v-210h107v-54h-107v-273z" />
    <glyph glyph-name="g.smcp" horiz-adv-x="341" 
d="M170 273v54h113v-223q0 -113 -113 -113t-113 113v387q0 112 113 112q112 0 112 -112v-58h-59v58q0 24 -13 41t-40 17q-53 0 -53 -58v-387q0 -25 13 -42t40 -17q53 0 53 59v169h-53z" />
    <glyph glyph-name="h.smcp" horiz-adv-x="355" 
d="M123 273v-273h-61v595h61v-268h108v268h61v-595h-61v273h-108z" />
    <glyph glyph-name="i.smcp" horiz-adv-x="186" 
d="M62 0v595h61v-595h-61z" />
    <glyph glyph-name="j.smcp" horiz-adv-x="313" 
d="M98 170v-67q0 -58 49 -58q48 0 48 58v492h60v-492q0 -112 -108 -112q-110 0 -110 112v67h61z" />
    <glyph glyph-name="k.smcp" horiz-adv-x="325" 
d="M123 595v-270l111 270h67l-129 -295l135 -300h-66l-118 275v-275h-61v595h61z" />
    <glyph glyph-name="l.smcp" horiz-adv-x="251" 
d="M62 0v595h61v-538h105v-57h-166z" />
    <glyph glyph-name="m.smcp" horiz-adv-x="466" 
d="M62 595h77l93 -506l94 506h77v-595h-57v203q0 24 7 297l-91 -500h-58l-92 500q1 -27 3 -94t3.5 -121.5t1.5 -81.5v-203h-58v595z" />
    <glyph glyph-name="n.smcp" horiz-adv-x="379" 
d="M115 464q6 -184 6 -272v-192h-59v595h60l141 -465q-6 188 -6 272v193h59v-595h-60z" />
    <glyph glyph-name="o.smcp" horiz-adv-x="331" 
d="M165 45q53 0 53 59v386q0 59 -53 59t-53 -59v-386q0 -59 53 -59zM165 603q113 0 113 -113v-386q0 -113 -113 -113t-113 113v386q0 113 113 113z" />
    <glyph glyph-name="p.smcp" horiz-adv-x="325" 
d="M62 0v595h110q115 0 115 -112v-125q0 -48 -28.5 -79t-88.5 -31h-47v-248h-61zM123 301h46q58 0 58 57v125q0 54 -58 54h-46v-236z" />
    <glyph glyph-name="q.smcp" horiz-adv-x="331" 
d="M249 -83h-12q-95 0 -98 76q-87 9 -87 110v387q0 113 113 113t113 -113v-387q0 -101 -87 -110q1 -20 11 -28t35 -8h21zM165 44q53 0 53 59v387q0 59 -53 59t-53 -59v-387q0 -59 53 -59z" />
    <glyph glyph-name="r.smcp" horiz-adv-x="338" 
d="M62 0v595h111q64 0 89 -29.5t25 -81.5v-122q0 -91 -74 -104l106 -258h-67l-98 255h-31v-255h-61zM123 308h46q58 0 58 54v122q0 53 -58 53h-46v-229z" />
    <glyph glyph-name="s.smcp" horiz-adv-x="320" 
d="M211 105v63q0 45 -17 74.5t-41 45.5t-48 32.5t-41 48t-17 79.5v42q0 113 112 113q113 0 113 -113v-57h-61v57q0 59 -52 59t-52 -59v-41q0 -28 9 -48.5t23.5 -33.5t32 -24t35.5 -24.5t32.5 -31t23.5 -47.5t9 -71v-64q0 -114 -113 -114q-112 0 -112 114v65h60v-65
q0 -60 52 -60t52 60z" />
    <glyph glyph-name="t.smcp" horiz-adv-x="266" 
d="M163 537v-537h-60v537h-81v58h221v-58h-80z" />
    <glyph glyph-name="u.smcp" horiz-adv-x="340" 
d="M117 595v-490q0 -60 53 -60q52 0 52 60v490h60v-490q0 -50 -26 -82t-86 -32q-113 0 -113 114v490h60z" />
    <glyph glyph-name="v.smcp" horiz-adv-x="313" 
d="M285 595l-94 -595h-70l-94 595h62l67 -489l67 489h62z" />
    <glyph glyph-name="w.smcp" horiz-adv-x="516" 
d="M328 0l-71 486l-70 -486h-70l-85 595h61l60 -490l73 490h63l73 -490l59 490h62l-86 -595h-69z" />
    <glyph glyph-name="x.smcp" horiz-adv-x="306" 
d="M93 595l60 -216l59 216h64l-93 -286l100 -309h-64l-66 237l-67 -237h-64l99 309l-92 286h64z" />
    <glyph glyph-name="y.smcp" horiz-adv-x="292" 
d="M176 0h-61v247l-93 348h63l60 -268l60 268h64l-93 -348v-247z" />
    <glyph glyph-name="z.smcp" horiz-adv-x="274" 
d="M241 0h-204v40l136 497h-136v58h201v-40l-135 -498h138v-57z" />
    <glyph glyph-name="ampersand.smcp" horiz-adv-x="380" 
d="M340 327v-53h-55v-171q0 -21 15 -34.5t39 -13.5v-55q-61 0 -83 34q-21 -43 -87 -43q-110 0 -110 111v110q0 70 53 89q-53 17 -53 88v101q0 113 113 113q59 0 85.5 -31.5t26.5 -81.5v-57h-59v57q0 25 -13 42t-40 17q-53 0 -53 -59v-113q0 -50 56 -50h165zM172 45
q30 0 41.5 16t11.5 50v163h-50q-32 0 -44 -16t-12 -51v-96q0 -66 53 -66z" />
    <glyph glyph-name="one.smcp" horiz-adv-x="255" 
d="M158 595v-538h59v-57h-178v57h59v437h-61v40q72 0 72 61h49z" />
    <glyph glyph-name="two.smcp" horiz-adv-x="311" 
d="M107 88v-31h166v-57h-226v85q0 56 16.5 99t40.5 70.5t48 52.5t40.5 57.5t16.5 72.5v55q0 57 -51 57t-51 -57v-59h-60v59q0 111 111 111q112 0 112 -111v-54q0 -48 -17 -85.5t-41 -63.5t-47.5 -51.5t-40.5 -63.5t-17 -86z" />
    <glyph glyph-name="three.smcp" 
d="M125 273v54h32q49 0 49 50v118q0 54 -50 54q-49 0 -49 -54v-62h-58v62q0 108 107 108q110 0 110 -108v-113q0 -63 -51 -81q55 -17 55 -81v-119q0 -110 -113 -110q-110 0 -110 110v69h60v-69q0 -56 50 -56q52 0 52 56v121q0 21 -13 36t-39 15h-32z" />
    <glyph glyph-name="four.smcp" horiz-adv-x="314" 
d="M182 0v129h-155v59l135 407h81v-413h43v-53h-43v-129h-61zM77 182h105v111v231z" />
    <glyph glyph-name="five.smcp" horiz-adv-x="331" 
d="M168 314q-37 0 -61 -30h-48l17 311h193v-58h-139l-11 -199q31 24 63 24q51 0 73.5 -24.5t22.5 -75.5v-158q0 -113 -113 -113t-113 113v66h60v-66q0 -59 53 -59t53 59v158q0 52 -50 52z" />
    <glyph glyph-name="six.smcp" horiz-adv-x="336" 
d="M170 549q-53 0 -53 -59v-166q30 27 69 27q97 0 97 -103v-144q0 -113 -113 -113t-113 113v386q0 113 113 113t113 -113v-57h-60v57q0 59 -53 59zM171 301q-35 0 -54 -27v-170q0 -59 53 -59t53 59v144q0 53 -52 53z" />
    <glyph glyph-name="seven.smcp" horiz-adv-x="265" 
d="M155 0h-66q0 161 20.5 283.5t74.5 253.5h-162v58h220v-49q-55 -154 -71 -253t-16 -293z" />
    <glyph glyph-name="eight.smcp" horiz-adv-x="331" 
d="M165 603q110 0 110 -109v-110q0 -64 -52 -83q55 -18 55 -92v-105q0 -113 -113 -113t-113 113v105q0 74 55 92q-50 18 -50 83v110q0 109 108 109zM165 45q53 0 53 65v104q0 30 -11 47t-42 17q-53 0 -53 -64v-104q0 -65 53 -65zM165 549q-49 0 -49 -60v-106q0 -60 49 -60
q50 0 50 60v106q0 60 -50 60z" />
    <glyph glyph-name="nine.smcp" horiz-adv-x="331" 
d="M165 46q53 0 53 58v178q-31 -26 -69 -26q-97 0 -97 101v134q0 112 113 112t113 -112v-387q0 -113 -113 -113t-113 113v66h60v-66q0 -58 53 -58zM164 305q36 0 54 27v159q0 59 -53 59t-53 -59v-134q0 -52 52 -52z" />
    <glyph glyph-name="zero.smcp" horiz-adv-x="331" 
d="M165 45q53 0 53 59v386q0 59 -53 59t-53 -59v-386q0 -59 53 -59zM165 603q113 0 113 -113v-386q0 -113 -113 -113t-113 113v386q0 113 113 113z" />
    <glyph glyph-name="dollar.smcp" horiz-adv-x="326" 
d="M59 412v16q0 95 84 103v64h39v-64q83 -8 83 -103v-43h-56v44q0 54 -47 54t-47 -54v-17q0 -28 15.5 -46t37.5 -29t44 -23t37.5 -36t15.5 -59v-35q0 -95 -83 -103v-81h-39v81q-47 4 -65.5 30.5t-18.5 72.5v52h56v-45q0 -35 9.5 -48.5t37.5 -13.5q25 0 36 13t11 41v35
q0 32 -23.5 52.5t-51.5 31t-51.5 38.5t-23.5 72z" />
    <glyph glyph-name="cent.smcp" horiz-adv-x="332" 
d="M215 240h57v-56q0 -97 -87 -105v-79h-39v79q-87 8 -87 105v244q0 95 87 103v64h39v-64q87 -8 87 -103v-47h-57v47q0 55 -49 55q-50 0 -50 -55v-244q0 -55 50 -55q49 0 49 55v56z" />
    <glyph glyph-name="sterling.smcp" horiz-adv-x="371" 
d="M40 285v35h56v170q0 113 113 113q111 0 111 -113v-57h-59v57q0 59 -52 59q-53 0 -53 -59v-170h74v-35h-74v-175q0 -53 56 -53h109v-57h-109q-64 0 -87 40q-25 -40 -86 -40v57q57 0 57 53v175h-56z" />
    <glyph glyph-name="Euro.smcp" horiz-adv-x="362" 
d="M29 363h48v127q0 113 113 113q59 0 85.5 -31.5t26.5 -81.5v-57h-59v57q0 59 -53 59t-53 -59v-127h107q-1 -5 -4 -16t-4 -16h-99v-61h84q-7 -25 -8 -31h-76v-135q0 -59 53 -59t53 59v66h59v-66q0 -50 -26.5 -81.5t-85.5 -31.5q-113 0 -113 113v135h-48v31h48v61h-48v32z
" />
    <glyph glyph-name="yen.smcp" horiz-adv-x="327" 
d="M56 228h76v18q-15 58 -46.5 174.5t-46.5 174.5h64l59 -272l61 272h63l-93 -349v-18h79v-36h-79v-55h79v-36h-79v-101h-61v101h-76v36h76v55h-76v36z" />
    <glyph glyph-name="numbersign.smcp" horiz-adv-x="347" 
d="M267 595l-9 -163h62v-37h-64q-6 -130 -10 -195h62v-38h-65l-8 -162h-37l8 162h-76l-8 -162h-37l8 162h-62v38h65q6 130 10 195h-63v37h65l9 163h37l-9 -163h76l9 163h37zM143 395q-4 -65 -10 -195h76q4 65 10 195h-76z" />
    <glyph glyph-name="percent.smcp" horiz-adv-x="434" 
d="M376 595l-280 -595h-38l279 595h39zM128 350q-42 0 -59 21.5t-17 67.5v74q0 46 16.5 68t59.5 22q42 0 58.5 -22t16.5 -68v-74q0 -46 -16.5 -67.5t-58.5 -21.5zM306 -9q-43 0 -59.5 22t-16.5 68v74q0 46 17 67.5t59 21.5t58.5 -21.5t16.5 -67.5v-74q0 -46 -16.5 -68
t-58.5 -22zM128 572q-23 0 -31.5 -12.5t-8.5 -45.5v-75q0 -33 8.5 -46t31.5 -13q22 0 30.5 13t8.5 46v75q0 33 -8.5 45.5t-30.5 12.5zM306 214q-23 0 -31 -13t-8 -46v-75q0 -33 8 -45.5t31 -12.5q22 0 30.5 12.5t8.5 45.5v75q0 33 -8.5 46t-30.5 13z" />
    <glyph glyph-name="acute.smcp" horiz-adv-x="177" 
d="M77 767h59l-54 -127h-43z" />
    <glyph glyph-name="grave.smcp" horiz-adv-x="177" 
d="M39 767h60l37 -127h-42z" />
    <glyph glyph-name="circumflex.smcp" horiz-adv-x="242" 
d="M94 767h52l56 -127h-44l-38 74l-37 -74h-44z" />
    <glyph glyph-name="dieresis.smcp" horiz-adv-x="249" 
d="M39 734h61v-74h-61v74zM147 734h61v-74h-61v74z" />
    <glyph glyph-name="tilde.smcp" horiz-adv-x="301" 
d="M198 655q-27 0 -52 21t-41 21q-28 0 -28 -32h-38q0 42 14 61.5t49 19.5q27 0 52 -21t41 -21q28 0 28 32h38q0 -42 -14.5 -61.5t-48.5 -19.5z" />
    <glyph glyph-name="caron.smcp" horiz-adv-x="242" 
d="M146 640h-52l-55 127h44l37 -74l38 74h44z" />
    <glyph glyph-name="ring.smcp" horiz-adv-x="215" 
d="M175 715q0 -75 -68 -75t-68 75q0 77 68 77t68 -77zM136 715q0 43 -29 43t-29 -43q0 -41 29 -41t29 41z" />
    <glyph glyph-name="breve.smcp" horiz-adv-x="236" 
d="M157 741h39q0 -101 -79 -101q-78 0 -78 101h38q0 -55 40 -55t40 55z" />
    <glyph glyph-name="macron.smcp" horiz-adv-x="250" 
d="M39 665v46h170v-46h-170z" />
    <glyph glyph-name="dotaccent.smcp" horiz-adv-x="144" 
d="M40 714h61v-74h-61v74z" />
    <glyph glyph-name="hungarumlaut.smcp" horiz-adv-x="267" 
d="M62 767h59l-39 -127h-43zM167 767h59l-49 -127h-43z" />
    <glyph glyph-name="aacute.smcp" horiz-adv-x="303" 
d="M22 0l92 595h75l92 -595h-62l-18 131h-99l-18 -131h-62zM195 185l-44 331l-43 -331h87zM166 767h59l-54 -127h-43z" />
    <glyph glyph-name="agrave.smcp" horiz-adv-x="303" 
d="M22 0l92 595h75l92 -595h-62l-18 131h-99l-18 -131h-62zM195 185l-44 331l-43 -331h87zM75 767h60l37 -127h-42z" />
    <glyph glyph-name="acircumflex.smcp" horiz-adv-x="303" 
d="M22 0l92 595h75l92 -595h-62l-18 131h-99l-18 -131h-62zM195 185l-44 331l-43 -331h87zM124 767h52l56 -127h-44l-38 74l-37 -74h-44z" />
    <glyph glyph-name="adieresis.smcp" horiz-adv-x="303" 
d="M22 0l92 595h75l92 -595h-62l-18 131h-99l-18 -131h-62zM195 185l-44 331l-43 -331h87zM66 734h61v-74h-61v74zM174 734h61v-74h-61v74z" />
    <glyph glyph-name="atilde.smcp" horiz-adv-x="303" 
d="M22 0l92 595h75l92 -595h-62l-18 131h-99l-18 -131h-62zM195 185l-44 331l-43 -331h87zM199 655q-27 0 -52 21t-41 21q-28 0 -28 -32h-38q0 42 14 61.5t49 19.5q27 0 52 -21t41 -21q28 0 28 32h38q0 -42 -14.5 -61.5t-48.5 -19.5z" />
    <glyph glyph-name="aring.smcp" horiz-adv-x="303" 
d="M22 0l92 595h75l92 -595h-62l-18 131h-99l-18 -131h-62zM195 185l-44 331l-43 -331h87zM219 715q0 -75 -68 -75t-68 75q0 77 68 77t68 -77zM180 715q0 43 -29 43t-29 -43q0 -41 29 -41t29 41z" />
    <glyph glyph-name="amacron.smcp" horiz-adv-x="303" 
d="M22 0l92 595h75l92 -595h-62l-18 131h-99l-18 -131h-62zM195 185l-44 331l-43 -331h87zM66 665v46h170v-46h-170z" />
    <glyph glyph-name="abreve.smcp" horiz-adv-x="303" 
d="M22 0l92 595h75l92 -595h-62l-18 131h-99l-18 -131h-62zM195 185l-44 331l-43 -331h87zM190 741h39q0 -101 -79 -101q-78 0 -78 101h38q0 -55 40 -55t40 55z" />
    <glyph glyph-name="aogonek.smcp" horiz-adv-x="303" 
d="M269 -115h12v-55h-12q-84 0 -84 68q0 60 58 102h-24l-18 131h-99l-18 -131h-62l92 595h75l92 -595q-47 -36 -47 -83q0 -32 35 -32zM195 185l-44 331l-43 -331h87z" />
    <glyph glyph-name="ae.smcp" horiz-adv-x="447" 
d="M277 273v-216h131v-57h-191v132h-96l-33 -132h-64l157 595h227v-58h-131v-210h113v-54h-113zM132 185h85v347z" />
    <glyph glyph-name="bdotaccent.smcp" horiz-adv-x="344" 
d="M62 0v595h110q65 0 89.5 -24.5t24.5 -74.5v-115q0 -64 -52 -80q57 -16 57 -82v-114q0 -51 -24 -78t-89 -27h-116zM123 57h51q32 0 44 12t12 37v116q0 51 -56 51h-51v-216zM171 537h-48v-210h47q57 0 57 51v111q0 25 -12.5 36.5t-43.5 11.5zM137 714h61v-74h-61v74z" />
    <glyph glyph-name="cacute.smcp" horiz-adv-x="320" 
d="M219 103v67h58v-67q0 -112 -112 -112q-113 0 -113 112v388q0 112 113 112q112 0 112 -112v-58h-58v58q0 25 -13.5 41.5t-40.5 16.5q-53 0 -53 -58v-388q0 -25 13 -41.5t40 -16.5q54 0 54 58zM181 767h59l-54 -127h-43z" />
    <glyph glyph-name="ccircumflex.smcp" horiz-adv-x="320" 
d="M219 103v67h58v-67q0 -112 -112 -112q-113 0 -113 112v388q0 112 113 112q112 0 112 -112v-58h-58v58q0 25 -13.5 41.5t-40.5 16.5q-53 0 -53 -58v-388q0 -25 13 -41.5t40 -16.5q54 0 54 58zM139 767h52l56 -127h-44l-38 74l-37 -74h-44z" />
    <glyph glyph-name="ccaron.smcp" horiz-adv-x="320" 
d="M219 103v67h58v-67q0 -112 -112 -112q-113 0 -113 112v388q0 112 113 112q112 0 112 -112v-58h-58v58q0 25 -13.5 41.5t-40.5 16.5q-53 0 -53 -58v-388q0 -25 13 -41.5t40 -16.5q54 0 54 58zM191 640h-52l-55 127h44l37 -74l38 74h44z" />
    <glyph glyph-name="ccedilla.smcp" horiz-adv-x="320" 
d="M125 -71l17 64q-90 10 -90 110v388q0 112 113 112q112 0 112 -112v-58h-58v58q0 25 -13.5 41.5t-40.5 16.5q-53 0 -53 -58v-388q0 -25 13 -41.5t40 -16.5q54 0 54 58v67h58v-67q0 -106 -101 -111l-8 -32q64 -9 64 -64q0 -66 -88 -66h-46l10 38h33q41 0 41 30q0 31 -43 31
h-14z" />
    <glyph glyph-name="cdotaccent.smcp" horiz-adv-x="320" 
d="M219 103v67h58v-67q0 -112 -112 -112q-113 0 -113 112v388q0 112 113 112q112 0 112 -112v-58h-58v58q0 25 -13.5 41.5t-40.5 16.5q-53 0 -53 -58v-388q0 -25 13 -41.5t40 -16.5q54 0 54 58zM134 714h61v-74h-61v74z" />
    <glyph glyph-name="dcaron.smcp" horiz-adv-x="349" 
d="M123 57h50q57 0 57 55v371q0 54 -57 54h-50v-480zM62 0v595h112q117 0 117 -112v-371q0 -112 -115 -112h-114zM185 640h-52l-55 127h44l37 -74l38 74h44z" />
    <glyph glyph-name="ddotaccent.smcp" horiz-adv-x="349" 
d="M123 57h50q57 0 57 55v371q0 54 -57 54h-50v-480zM62 0v595h112q117 0 117 -112v-371q0 -112 -115 -112h-114zM130 714h61v-74h-61v74z" />
    <glyph glyph-name="dcroat.smcp" horiz-adv-x="349" 
d="M19 277v41h43v277h112q117 0 117 -112v-371q0 -112 -115 -112h-114v277h-43zM123 57h50q57 0 57 55v371q0 54 -57 54h-50v-219h66v-41h-66v-220z" />
    <glyph glyph-name="eth.smcp" horiz-adv-x="349" 
d="M19 277v41h43v277h112q117 0 117 -112v-371q0 -112 -115 -112h-114v277h-43zM123 57h50q57 0 57 55v371q0 54 -57 54h-50v-219h66v-41h-66v-220z" />
    <glyph glyph-name="eacute.smcp" horiz-adv-x="296" 
d="M123 273v-216h130v-57h-191v595h191v-58h-130v-210h112v-54h-112zM170 767h59l-54 -127h-43z" />
    <glyph glyph-name="egrave.smcp" horiz-adv-x="296" 
d="M123 273v-216h130v-57h-191v595h191v-58h-130v-210h112v-54h-112zM99 767h60l37 -127h-42z" />
    <glyph glyph-name="ecircumflex.smcp" horiz-adv-x="296" 
d="M123 273v-216h130v-57h-191v595h191v-58h-130v-210h112v-54h-112zM131 767h52l56 -127h-44l-38 74l-37 -74h-44z" />
    <glyph glyph-name="edieresis.smcp" horiz-adv-x="296" 
d="M123 273v-216h130v-57h-191v595h191v-58h-130v-210h112v-54h-112zM72 734h61v-74h-61v74zM180 734h61v-74h-61v74z" />
    <glyph glyph-name="ecaron.smcp" horiz-adv-x="296" 
d="M123 273v-216h130v-57h-191v595h191v-58h-130v-210h112v-54h-112zM185 640h-52l-55 127h44l37 -74l38 74h44z" />
    <glyph glyph-name="emacron.smcp" horiz-adv-x="296" 
d="M123 273v-216h130v-57h-191v595h191v-58h-130v-210h112v-54h-112zM74 665v46h170v-46h-170z" />
    <glyph glyph-name="ebreve.smcp" horiz-adv-x="296" 
d="M123 273v-216h130v-57h-191v595h191v-58h-130v-210h112v-54h-112zM198 741h39q0 -101 -79 -101q-78 0 -78 101h38q0 -55 40 -55t40 55z" />
    <glyph glyph-name="eogonek.smcp" horiz-adv-x="296" 
d="M241 -115h12v-55h-12q-84 0 -84 68q0 60 58 102h-153v595h191v-58h-130v-210h112v-54h-112v-216h130v-57q-47 -36 -47 -83q0 -32 35 -32z" />
    <glyph glyph-name="edotaccent.smcp" horiz-adv-x="296" 
d="M123 273v-216h130v-57h-191v595h191v-58h-130v-210h112v-54h-112zM124 714h61v-74h-61v74z" />
    <glyph glyph-name="fdotaccent.smcp" horiz-adv-x="281" 
d="M123 0h-61v595h186v-58h-125v-210h107v-54h-107v-273zM119 714h61v-74h-61v74z" />
    <glyph glyph-name="gcircumflex.smcp" horiz-adv-x="341" 
d="M170 273v54h113v-223q0 -113 -113 -113t-113 113v387q0 112 113 112q112 0 112 -112v-58h-59v58q0 24 -13 41t-40 17q-53 0 -53 -58v-387q0 -25 13 -42t40 -17q53 0 53 59v169h-53zM143 767h52l56 -127h-44l-38 74l-37 -74h-44z" />
    <glyph glyph-name="gbreve.smcp" horiz-adv-x="341" 
d="M170 273v54h113v-223q0 -113 -113 -113t-113 113v387q0 112 113 112q112 0 112 -112v-58h-59v58q0 24 -13 41t-40 17q-53 0 -53 -58v-387q0 -25 13 -42t40 -17q53 0 53 59v169h-53zM209 741h39q0 -101 -79 -101q-78 0 -78 101h38q0 -55 40 -55t40 55z" />
    <glyph glyph-name="gdotaccent.smcp" horiz-adv-x="341" 
d="M170 273v54h113v-223q0 -113 -113 -113t-113 113v387q0 112 113 112q112 0 112 -112v-58h-59v58q0 24 -13 41t-40 17q-53 0 -53 -58v-387q0 -25 13 -42t40 -17q53 0 53 59v169h-53zM139 714h61v-74h-61v74z" />
    <glyph glyph-name="gcommaaccent.smcp" horiz-adv-x="341" 
d="M170 273v54h113v-223q0 -113 -113 -113t-113 113v387q0 112 113 112q112 0 112 -112v-58h-59v58q0 24 -13 41t-40 17q-53 0 -53 -58v-387q0 -25 13 -42t40 -17q53 0 53 59v169h-53zM138 -48h63l-26 -122h-37v122z" />
    <glyph glyph-name="hcircumflex.smcp" horiz-adv-x="355" 
d="M123 273v-273h-61v595h61v-268h108v268h61v-595h-61v273h-108zM150 767h52l56 -127h-44l-38 74l-37 -74h-44z" />
    <glyph glyph-name="hbar.smcp" horiz-adv-x="355" 
d="M17 447v36h45v112h61v-112h108v112h61v-112h45v-36h-45v-447h-61v273h-108v-273h-61v447h-45zM123 327h108v120h-108v-120z" />
    <glyph glyph-name="iacute.smcp" horiz-adv-x="186" 
d="M62 0v595h61v-595h-61zM108 767h59l-54 -127h-43z" />
    <glyph glyph-name="igrave.smcp" horiz-adv-x="186" 
d="M62 0v595h61v-595h-61zM13 767h60l37 -127h-42z" />
    <glyph glyph-name="icircumflex.smcp" horiz-adv-x="186" 
d="M62 0v595h61v-595h-61zM66 767h52l56 -127h-44l-38 74l-37 -74h-44z" />
    <glyph glyph-name="idieresis.smcp" horiz-adv-x="186" 
d="M62 0v595h61v-595h-61zM8 734h61v-74h-61v74zM116 734h61v-74h-61v74z" />
    <glyph glyph-name="itilde.smcp" horiz-adv-x="186" 
d="M62 0v595h61v-595h-61zM141 655q-27 0 -52 21t-41 21q-28 0 -28 -32h-38q0 42 14 61.5t49 19.5q27 0 52 -21t41 -21q28 0 28 32h38q0 -42 -14.5 -61.5t-48.5 -19.5z" />
    <glyph glyph-name="imacron.smcp" horiz-adv-x="186" 
d="M62 0v595h61v-595h-61zM8 665v46h170v-46h-170z" />
    <glyph glyph-name="ibreve.smcp" horiz-adv-x="186" 
d="M62 0v595h61v-595h-61zM132 741h39q0 -101 -79 -101q-78 0 -78 101h38q0 -55 40 -55t40 55z" />
    <glyph glyph-name="iogonek.smcp" horiz-adv-x="186" 
d="M62 0v595h61v-595q-47 -36 -47 -83q0 -32 35 -32h12v-55h-12q-84 0 -84 68q0 60 58 102h-23z" />
    <glyph glyph-name="jcircumflex.smcp" horiz-adv-x="313" 
d="M98 170v-67q0 -58 49 -58q48 0 48 58v492h60v-492q0 -112 -108 -112q-110 0 -110 112v67h61zM193 767h52l56 -127h-44l-38 74l-37 -74h-44z" />
    <glyph glyph-name="kcommaaccent.smcp" horiz-adv-x="325" 
d="M123 595v-270l111 270h67l-129 -295l135 -300h-66l-118 275v-275h-61v595h61zM140 -48h63l-26 -122h-37v122z" />
    <glyph glyph-name="lacute.smcp" horiz-adv-x="251" 
d="M62 0v595h61v-538h105v-57h-166zM110 767h59l-54 -127h-43z" />
    <glyph glyph-name="lcaron.smcp" horiz-adv-x="242" 
d="M62 0v595h61v-538h105v-57h-166zM157 595h52l-26 -170h-26v170z" />
    <glyph glyph-name="lcommaaccent.smcp" horiz-adv-x="251" 
d="M62 0v595h61v-538h105v-57h-166zM109 -48h63l-26 -122h-37v122z" />
    <glyph glyph-name="ldot.smcp" horiz-adv-x="251" 
d="M62 0v595h61v-538h105v-57h-166zM146 318h67v-77h-67v77z" />
    <glyph glyph-name="lslash.smcp" horiz-adv-x="251" 
d="M190 294l-67 -27v-210h105v-57h-166v242l-55 -22v40l55 22v313h61v-288l67 27v-40z" />
    <glyph glyph-name="mdotaccent.smcp" horiz-adv-x="466" 
d="M62 595h77l93 -506l94 506h77v-595h-57v203q0 24 7 297l-91 -500h-58l-92 500q1 -27 3 -94t3.5 -121.5t1.5 -81.5v-203h-58v595zM201 714h61v-74h-61v74z" />
    <glyph glyph-name="nacute.smcp" horiz-adv-x="379" 
d="M115 464q6 -184 6 -272v-192h-59v595h60l141 -465q-6 188 -6 272v193h59v-595h-60zM202 767h59l-54 -127h-43z" />
    <glyph glyph-name="ntilde.smcp" horiz-adv-x="379" 
d="M115 464q6 -184 6 -272v-192h-59v595h60l141 -465q-6 188 -6 272v193h59v-595h-60zM237 655q-27 0 -52 21t-41 21q-28 0 -28 -32h-38q0 42 14 61.5t49 19.5q27 0 52 -21t41 -21q28 0 28 32h38q0 -42 -14.5 -61.5t-48.5 -19.5z" />
    <glyph glyph-name="ncaron.smcp" horiz-adv-x="379" 
d="M115 464q6 -184 6 -272v-192h-59v595h60l141 -465q-6 188 -6 272v193h59v-595h-60zM214 640h-52l-55 127h44l37 -74l38 74h44z" />
    <glyph glyph-name="ncommaaccent.smcp" horiz-adv-x="379" 
d="M115 464q6 -184 6 -272v-192h-59v595h60l141 -465q-6 188 -6 272v193h59v-595h-60zM157 -48h63l-26 -122h-37v122z" />
    <glyph glyph-name="eng.smcp" horiz-adv-x="379" 
d="M258 -43v43q-81 261 -143 463q6 -174 6 -257v-206h-59v595h60l141 -463q-6 132 -6 256v207h59v-638q0 -50 -23 -76t-80 -26q-22 0 -37 6v51q11 -6 35 -6q27 0 37 11.5t10 39.5z" />
    <glyph glyph-name="oacute.smcp" horiz-adv-x="331" 
d="M165 45q53 0 53 59v386q0 59 -53 59t-53 -59v-386q0 -59 53 -59zM165 603q113 0 113 -113v-386q0 -113 -113 -113t-113 113v386q0 113 113 113zM181 767h59l-54 -127h-43z" />
    <glyph glyph-name="ograve.smcp" horiz-adv-x="331" 
d="M165 45q53 0 53 59v386q0 59 -53 59t-53 -59v-386q0 -59 53 -59zM165 603q113 0 113 -113v-386q0 -113 -113 -113t-113 113v386q0 113 113 113zM90 767h60l37 -127h-42z" />
    <glyph glyph-name="ocircumflex.smcp" horiz-adv-x="331" 
d="M165 45q53 0 53 59v386q0 59 -53 59t-53 -59v-386q0 -59 53 -59zM165 603q113 0 113 -113v-386q0 -113 -113 -113t-113 113v386q0 113 113 113zM138 767h52l56 -127h-44l-38 74l-37 -74h-44z" />
    <glyph glyph-name="odieresis.smcp" horiz-adv-x="331" 
d="M165 45q53 0 53 59v386q0 59 -53 59t-53 -59v-386q0 -59 53 -59zM165 603q113 0 113 -113v-386q0 -113 -113 -113t-113 113v386q0 113 113 113zM80 734h61v-74h-61v74zM188 734h61v-74h-61v74z" />
    <glyph glyph-name="otilde.smcp" horiz-adv-x="331" 
d="M165 45q53 0 53 59v386q0 59 -53 59t-53 -59v-386q0 -59 53 -59zM165 603q113 0 113 -113v-386q0 -113 -113 -113t-113 113v386q0 113 113 113zM213 655q-27 0 -52 21t-41 21q-28 0 -28 -32h-38q0 42 14 61.5t49 19.5q27 0 52 -21t41 -21q28 0 28 32h38
q0 -42 -14.5 -61.5t-48.5 -19.5z" />
    <glyph glyph-name="obreve.smcp" horiz-adv-x="331" 
d="M165 45q53 0 53 59v386q0 59 -53 59t-53 -59v-386q0 -59 53 -59zM165 603q113 0 113 -113v-386q0 -113 -113 -113t-113 113v386q0 113 113 113zM204 741h39q0 -101 -79 -101q-78 0 -78 101h38q0 -55 40 -55t40 55z" />
    <glyph glyph-name="omacron.smcp" horiz-adv-x="331" 
d="M165 45q53 0 53 59v386q0 59 -53 59t-53 -59v-386q0 -59 53 -59zM165 603q113 0 113 -113v-386q0 -113 -113 -113t-113 113v386q0 113 113 113zM80 665v46h170v-46h-170z" />
    <glyph glyph-name="ohungarumlaut.smcp" horiz-adv-x="331" 
d="M165 45q53 0 53 59v386q0 59 -53 59t-53 -59v-386q0 -59 53 -59zM165 603q113 0 113 -113v-386q0 -113 -113 -113t-113 113v386q0 113 113 113zM118 767h59l-39 -127h-43zM223 767h59l-49 -127h-43z" />
    <glyph glyph-name="oslash.smcp" horiz-adv-x="331" 
d="M107 -30l4 30q-59 22 -59 104v386q0 113 113 113q12 0 28 -2l4 24h28l-5 -32q58 -22 58 -103v-386q0 -113 -113 -113q-11 0 -27 2l-3 -23h-28zM112 104q0 -24 8 -37l66 479q-9 3 -21 3q-53 0 -53 -59v-386zM165 45q53 0 53 59v386q0 20 -7 34l-66 -477q12 -2 20 -2z" />
    <glyph glyph-name="oe.smcp" horiz-adv-x="452" 
d="M279 273v-216h130v-57h-195q-21 -9 -49 -9q-113 0 -113 113v386q0 113 113 113q26 0 45 -8h199v-58h-130v-210h112v-54h-112zM165 45q53 0 53 59v386q0 59 -53 59t-53 -59v-386q0 -59 53 -59z" />
    <glyph glyph-name="thorn.smcp" horiz-adv-x="325" 
d="M62 0v595h61v-123h49q115 0 115 -112v-125q0 -48 -28.5 -79t-88.5 -31h-47v-125h-61zM123 178h46q58 0 58 57v125q0 54 -58 54h-46v-236z" />
    <glyph glyph-name="pdotaccent.smcp" horiz-adv-x="325" 
d="M62 0v595h110q115 0 115 -112v-125q0 -48 -28.5 -79t-88.5 -31h-47v-248h-61zM123 301h46q58 0 58 57v125q0 54 -58 54h-46v-236zM131 714h61v-74h-61v74z" />
    <glyph glyph-name="racute.smcp" horiz-adv-x="338" 
d="M62 0v595h111q64 0 89 -29.5t25 -81.5v-122q0 -91 -74 -104l106 -258h-67l-98 255h-31v-255h-61zM123 308h46q58 0 58 54v122q0 53 -58 53h-46v-229zM177 767h59l-54 -127h-43z" />
    <glyph glyph-name="rcaron.smcp" horiz-adv-x="338" 
d="M62 0v595h111q64 0 89 -29.5t25 -81.5v-122q0 -91 -74 -104l106 -258h-67l-98 255h-31v-255h-61zM123 308h46q58 0 58 54v122q0 53 -58 53h-46v-229zM183 640h-52l-55 127h44l37 -74l38 74h44z" />
    <glyph glyph-name="rcommaaccent.smcp" horiz-adv-x="338" 
d="M62 0v595h111q64 0 89 -29.5t25 -81.5v-122q0 -91 -74 -104l106 -258h-67l-98 255h-31v-255h-61zM123 308h46q58 0 58 54v122q0 53 -58 53h-46v-229zM137 -48h63l-26 -122h-37v122z" />
    <glyph glyph-name="sacute.smcp" horiz-adv-x="320" 
d="M211 105v63q0 45 -17 74.5t-41 45.5t-48 32.5t-41 48t-17 79.5v42q0 113 112 113q113 0 113 -113v-57h-61v57q0 59 -52 59t-52 -59v-41q0 -28 9 -48.5t23.5 -33.5t32 -24t35.5 -24.5t32.5 -31t23.5 -47.5t9 -71v-64q0 -114 -113 -114q-112 0 -112 114v65h60v-65
q0 -60 52 -60t52 60zM177 767h59l-54 -127h-43z" />
    <glyph glyph-name="scircumflex.smcp" horiz-adv-x="320" 
d="M211 105v63q0 45 -17 74.5t-41 45.5t-48 32.5t-41 48t-17 79.5v42q0 113 112 113q113 0 113 -113v-57h-61v57q0 59 -52 59t-52 -59v-41q0 -28 9 -48.5t23.5 -33.5t32 -24t35.5 -24.5t32.5 -31t23.5 -47.5t9 -71v-64q0 -114 -113 -114q-112 0 -112 114v65h60v-65
q0 -60 52 -60t52 60zM133 767h52l56 -127h-44l-38 74l-37 -74h-44z" />
    <glyph glyph-name="scaron.smcp" horiz-adv-x="320" 
d="M211 105v63q0 45 -17 74.5t-41 45.5t-48 32.5t-41 48t-17 79.5v42q0 113 112 113q113 0 113 -113v-57h-61v57q0 59 -52 59t-52 -59v-41q0 -28 9 -48.5t23.5 -33.5t32 -24t35.5 -24.5t32.5 -31t23.5 -47.5t9 -71v-64q0 -114 -113 -114q-112 0 -112 114v65h60v-65
q0 -60 52 -60t52 60zM185 640h-52l-55 127h44l37 -74l38 74h44z" />
    <glyph glyph-name="sdotaccent.smcp" horiz-adv-x="320" 
d="M211 105v63q0 45 -17 74.5t-41 45.5t-48 32.5t-41 48t-17 79.5v42q0 113 112 113q113 0 113 -113v-57h-61v57q0 59 -52 59t-52 -59v-41q0 -28 9 -48.5t23.5 -33.5t32 -24t35.5 -24.5t32.5 -31t23.5 -47.5t9 -71v-64q0 -114 -113 -114q-112 0 -112 114v65h60v-65
q0 -60 52 -60t52 60zM128 714h61v-74h-61v74z" />
    <glyph glyph-name="scedilla.smcp" horiz-adv-x="320" 
d="M119 -71l17 64q-89 10 -89 112v65h60v-65q0 -60 52 -60t52 60v63q0 45 -17 74.5t-41 45.5t-48 32.5t-41 48t-17 79.5v42q0 113 112 113q113 0 113 -113v-57h-61v57q0 59 -52 59t-52 -59v-41q0 -28 9 -48.5t23.5 -33.5t32 -24t35.5 -24.5t32.5 -31t23.5 -47.5t9 -71v-64
q0 -108 -102 -113l-8 -32q64 -9 64 -64q0 -66 -88 -66h-46l10 38h33q41 0 41 30q0 31 -43 31h-14z" />
    <glyph glyph-name="scommaaccent.smcp" horiz-adv-x="320" 
d="M211 105v63q0 45 -17 74.5t-41 45.5t-48 32.5t-41 48t-17 79.5v42q0 113 112 113q113 0 113 -113v-57h-61v57q0 59 -52 59t-52 -59v-41q0 -28 9 -48.5t23.5 -33.5t32 -24t35.5 -24.5t32.5 -31t23.5 -47.5t9 -71v-64q0 -114 -113 -114q-112 0 -112 114v65h60v-65
q0 -60 52 -60t52 60zM128 -48h63l-26 -122h-37v122z" />
    <glyph glyph-name="germandbls.smcp" horiz-adv-x="645" 
d="M211 105v63q0 45 -17 74.5t-41 45.5t-48 32.5t-41 48t-17 79.5v42q0 113 112 113q113 0 113 -113v-57h-61v57q0 59 -52 59t-52 -59v-41q0 -28 9 -48.5t23.5 -33.5t32 -24t35.5 -24.5t32.5 -31t23.5 -47.5t9 -71v-64q0 -114 -113 -114q-112 0 -112 114v65h60v-65
q0 -60 52 -60t52 60zM536 105v63q0 45 -17 74.5t-41 45.5t-48 32.5t-41 48t-17 79.5v42q0 113 112 113q113 0 113 -113v-57h-61v57q0 59 -52 59t-52 -59v-41q0 -38 17 -62.5t41 -39.5t48.5 -32.5t41.5 -54t17 -91.5v-64q0 -114 -113 -114q-112 0 -112 114v65h60v-65
q0 -60 52 -60t52 60z" />
    <glyph glyph-name="tcaron.smcp" horiz-adv-x="266" 
d="M163 537v-537h-60v537h-81v58h221v-58h-80zM158 640h-52l-55 127h44l37 -74l38 74h44z" />
    <glyph glyph-name="tdotaccent.smcp" horiz-adv-x="266" 
d="M163 537v-537h-60v537h-81v58h221v-58h-80zM101 714h61v-74h-61v74z" />
    <glyph glyph-name="tcommaaccent.smcp" horiz-adv-x="266" 
d="M163 537v-537h-60v537h-81v58h221v-58h-80zM101 -48h63l-26 -122h-37v122z" />
    <glyph glyph-name="tbar.smcp" horiz-adv-x="266" 
d="M47 272v41h56v224h-81v58h221v-58h-80v-224h54v-41h-54v-272h-60v272h-56z" />
    <glyph glyph-name="uacute.smcp" horiz-adv-x="340" 
d="M117 595v-490q0 -60 53 -60q52 0 52 60v490h60v-490q0 -50 -26 -82t-86 -32q-113 0 -113 114v490h60zM186 767h59l-54 -127h-43z" />
    <glyph glyph-name="ugrave.smcp" horiz-adv-x="340" 
d="M117 595v-490q0 -60 53 -60q52 0 52 60v490h60v-490q0 -50 -26 -82t-86 -32q-113 0 -113 114v490h60zM94 767h60l37 -127h-42z" />
    <glyph glyph-name="ucircumflex.smcp" horiz-adv-x="340" 
d="M117 595v-490q0 -60 53 -60q52 0 52 60v490h60v-490q0 -50 -26 -82t-86 -32q-113 0 -113 114v490h60zM143 767h52l56 -127h-44l-38 74l-37 -74h-44z" />
    <glyph glyph-name="udieresis.smcp" horiz-adv-x="340" 
d="M117 595v-490q0 -60 53 -60q52 0 52 60v490h60v-490q0 -50 -26 -82t-86 -32q-113 0 -113 114v490h60zM85 734h61v-74h-61v74zM193 734h61v-74h-61v74z" />
    <glyph glyph-name="utilde.smcp" horiz-adv-x="340" 
d="M117 595v-490q0 -60 53 -60q52 0 52 60v490h60v-490q0 -50 -26 -82t-86 -32q-113 0 -113 114v490h60zM217 655q-27 0 -52 21t-41 21q-28 0 -28 -32h-38q0 42 14 61.5t49 19.5q27 0 52 -21t41 -21q28 0 28 32h38q0 -42 -14.5 -61.5t-48.5 -19.5z" />
    <glyph glyph-name="uring.smcp" horiz-adv-x="340" 
d="M117 595v-490q0 -60 53 -60q52 0 52 60v490h60v-490q0 -50 -26 -82t-86 -32q-113 0 -113 114v490h60zM237 715q0 -75 -68 -75t-68 75q0 77 68 77t68 -77zM198 715q0 43 -29 43t-29 -43q0 -41 29 -41t29 41z" />
    <glyph glyph-name="ubreve.smcp" horiz-adv-x="340" 
d="M117 595v-490q0 -60 53 -60q52 0 52 60v490h60v-490q0 -50 -26 -82t-86 -32q-113 0 -113 114v490h60zM209 741h39q0 -101 -79 -101q-78 0 -78 101h38q0 -55 40 -55t40 55z" />
    <glyph glyph-name="umacron.smcp" horiz-adv-x="340" 
d="M117 595v-490q0 -60 53 -60q52 0 52 60v490h60v-490q0 -50 -26 -82t-86 -32q-113 0 -113 114v490h60zM84 665v46h170v-46h-170z" />
    <glyph glyph-name="uhungarumlaut.smcp" horiz-adv-x="340" 
d="M117 595v-490q0 -60 53 -60q52 0 52 60v490h60v-490q0 -50 -26 -82t-86 -32q-113 0 -113 114v490h60zM123 767h59l-39 -127h-43zM228 767h59l-49 -127h-43z" />
    <glyph glyph-name="uogonek.smcp" horiz-adv-x="340" 
d="M207 -115h12v-55h-12q-84 0 -84 68q0 52 46 93q-112 0 -112 114v490h60v-490q0 -60 53 -60q52 0 52 60v490h60v-490q0 -87 -67 -107q-43 -37 -43 -81q0 -32 35 -32z" />
    <glyph glyph-name="wacute.smcp" horiz-adv-x="516" 
d="M328 0l-71 486l-70 -486h-70l-85 595h61l60 -490l73 490h63l73 -490l59 490h62l-86 -595h-69zM273 767h59l-54 -127h-43z" />
    <glyph glyph-name="wgrave.smcp" horiz-adv-x="516" 
d="M328 0l-71 486l-70 -486h-70l-85 595h61l60 -490l73 490h63l73 -490l59 490h62l-86 -595h-69zM181 767h60l37 -127h-42z" />
    <glyph glyph-name="wcircumflex.smcp" horiz-adv-x="516" 
d="M328 0l-71 486l-70 -486h-70l-85 595h61l60 -490l73 490h63l73 -490l59 490h62l-86 -595h-69zM231 767h52l56 -127h-44l-38 74l-37 -74h-44z" />
    <glyph glyph-name="wdieresis.smcp" horiz-adv-x="516" 
d="M328 0l-71 486l-70 -486h-70l-85 595h61l60 -490l73 490h63l73 -490l59 490h62l-86 -595h-69zM173 734h61v-74h-61v74zM281 734h61v-74h-61v74z" />
    <glyph glyph-name="yacute.smcp" horiz-adv-x="292" 
d="M176 0h-61v247l-93 348h63l60 -268l60 268h64l-93 -348v-247zM162 767h59l-54 -127h-43z" />
    <glyph glyph-name="ygrave.smcp" horiz-adv-x="292" 
d="M176 0h-61v247l-93 348h63l60 -268l60 268h64l-93 -348v-247zM73 767h60l37 -127h-42z" />
    <glyph glyph-name="ycircumflex.smcp" horiz-adv-x="292" 
d="M176 0h-61v247l-93 348h63l60 -268l60 268h64l-93 -348v-247zM119 767h52l56 -127h-44l-38 74l-37 -74h-44z" />
    <glyph glyph-name="ydieresis.smcp" horiz-adv-x="292" 
d="M176 0h-61v247l-93 348h63l60 -268l60 268h64l-93 -348v-247zM61 734h61v-74h-61v74zM169 734h61v-74h-61v74z" />
    <glyph glyph-name="zacute.smcp" horiz-adv-x="274" 
d="M241 0h-204v40l136 497h-136v58h201v-40l-135 -498h138v-57zM153 767h59l-54 -127h-43z" />
    <glyph glyph-name="zcaron.smcp" horiz-adv-x="274" 
d="M241 0h-204v40l136 497h-136v58h201v-40l-135 -498h138v-57zM162 640h-52l-55 127h44l37 -74l38 74h44z" />
    <glyph glyph-name="zdotaccent.smcp" horiz-adv-x="274" 
d="M241 0h-204v40l136 497h-136v58h201v-40l-135 -498h138v-57zM105 714h61v-74h-61v74z" />
    <glyph glyph-name="at.case" horiz-adv-x="523" 
d="M261 -20q-212 0 -212 234v271q0 235 212 235q211 0 211 -235v-271q0 -234 -211 -234zM261 21q168 0 168 193v271q0 194 -168 194t-168 -194v-271q0 -89 37 -141t131 -52zM168 229v62q0 48 28.5 75t105.5 48v57q0 50 -41 50q-42 0 -42 -50v-22h-47v23q0 90 89 90
q49 0 68.5 -23.5t19.5 -67.5v-324h-34q-1 5 -5 13l-6 12q-16 -34 -58 -34t-60 23t-18 68zM302 230v148q-53 -16 -70 -37t-17 -61v-51q0 -51 45 -51q42 0 42 52z" />
    <glyph glyph-name="exclam.smcp" horiz-adv-x="178" 
d="M53 77h72v-77h-72v77zM52 595h74l-15 -400h-43z" />
    <glyph glyph-name="exclamdown.smcp" horiz-adv-x="178" 
d="M125 518h-72v77h72v-77zM126 0h-74l16 400h43z" />
    <glyph glyph-name="question.smcp" horiz-adv-x="323" 
d="M183 195h-44v17q0 48 7.5 79t18 45t21 25.5t18 31.5t7.5 52v44q0 59 -50 59q-30 0 -40 -14t-10 -45v-51h-60v51q0 54 23.5 84t86.5 30t86.5 -30t23.5 -84v-43q0 -41 -8.5 -67t-21 -39.5t-25 -27.5t-22.5 -43t-11 -74zM127 77h72v-77h-72v77z" />
    <glyph glyph-name="questiondown.smcp" horiz-adv-x="327" 
d="M143 400h44v-17q0 -48 -7.5 -79t-18 -45t-21 -25.5t-18 -31.5t-7.5 -52v-44q0 -59 50 -59q30 0 40 14t10 45v51h60v-51q0 -54 -23.5 -84t-86.5 -30t-86.5 30t-23.5 84v43q0 41 8.5 67t21 39.5t25 27.5t22.5 43t11 74zM199 518h-72v77h72v-77z" />
    <glyph glyph-name="slash.smcp" horiz-adv-x="256" 
d="M28 -26l153 646h47l-154 -646h-46z" />
    <glyph glyph-name="backslash.smcp" horiz-adv-x="256" 
d="M74 620l154 -646h-47l-153 646h46z" />
    </font>
</defs>
</svg>
